<svg width="44" height="44" viewBox="0 0 44 44" fill="none" xmlns="http://www.w3.org/2000/svg">
<rect width="44" height="44" rx="7" fill="#E1F5FC"/>
<rect x="0.5" y="0.5" width="43" height="43" rx="6.5" stroke="#009FE3" stroke-opacity="0.35"/>
<g clip-path="url(#clip0_1447_12874)">
<path d="M28 12C28.5304 12 29.0391 12.2107 29.4142 12.5858C29.7893 12.9609 30 13.4696 30 14V25.586C29.9999 26.1164 29.7891 26.625 29.414 27L25 31.414C24.625 31.7891 24.1164 31.9999 23.586 32H16C15.4696 32 14.9609 31.7893 14.5858 31.4142C14.2107 31.0391 14 30.5304 14 30V14C14 13.4696 14.2107 12.9609 14.5858 12.5858C14.9609 12.2107 15.4696 12 16 12H28ZM28 14H16V30H22V25.5C22 25.1022 22.158 24.7206 22.4393 24.4393C22.7206 24.158 23.1022 24 23.5 24H28V14ZM27.586 26H24V29.586L27.586 26ZM20 21C20.2652 21 20.5196 21.1054 20.7071 21.2929C20.8946 21.4804 21 21.7348 21 22C21 22.2652 20.8946 22.5196 20.7071 22.7071C20.5196 22.8946 20.2652 23 20 23H19C18.7348 23 18.4804 22.8946 18.2929 22.7071C18.1054 22.5196 18 22.2652 18 22C18 21.7348 18.1054 21.4804 18.2929 21.2929C18.4804 21.1054 18.7348 21 19 21H20ZM25 17C25.2652 17 25.5196 17.1054 25.7071 17.2929C25.8946 17.4804 26 17.7348 26 18C26 18.2652 25.8946 18.5196 25.7071 18.7071C25.5196 18.8946 25.2652 19 25 19H19C18.7348 19 18.4804 18.8946 18.2929 18.7071C18.1054 18.5196 18 18.2652 18 18C18 17.7348 18.1054 17.4804 18.2929 17.2929C18.4804 17.1054 18.7348 17 19 17H25Z" fill="#009FE3"/>
</g>
<defs>
<clipPath id="clip0_1447_12874">
<rect width="24" height="24" fill="white" transform="translate(10 10)"/>
</clipPath>
</defs>
</svg>
