<svg width="55" height="56" viewBox="0 0 55 56" fill="none" xmlns="http://www.w3.org/2000/svg">
<rect y="0.5" width="55" height="55" rx="8.55556" fill="#E1F5FC"/>
<rect x="0.5" y="1" width="54" height="54" rx="8.05556" stroke="#009FE3" stroke-opacity="0.35"/>
<g clip-path="url(#clip0_1364_7035)">
<path fill-rule="evenodd" clip-rule="evenodd" d="M28.4397 20.4165C29.0009 20.4166 29.5525 20.5621 30.0407 20.8387C30.529 21.1153 30.9374 21.5136 31.226 21.9949L33.5736 25.9068L36.4347 26.2643C36.9588 26.3298 37.4409 26.5845 37.7904 26.9805C38.14 27.3765 38.3328 27.8866 38.3327 28.4148V31.2498C38.3329 31.9471 38.1089 32.6259 37.6938 33.1862C37.2787 33.7464 36.6945 34.1583 36.0273 34.3612C35.8286 35.0168 35.4278 35.593 34.8822 36.0073C34.3365 36.4217 33.674 36.653 32.989 36.6684C32.304 36.6838 31.6317 36.4824 31.0681 36.0929C30.5044 35.7035 30.0781 35.1459 29.8502 34.4998H25.1474C24.919 35.1451 24.4927 35.7018 23.9293 36.0906C23.3659 36.4794 22.6941 36.6805 22.0098 36.6651C21.3254 36.6497 20.6633 36.4187 20.118 36.0051C19.5726 35.5914 19.1717 35.0161 18.9724 34.3612C18.3051 34.1585 17.7207 33.7467 17.3054 33.1864C16.8901 32.6262 16.6659 31.9472 16.666 31.2498V27.1256C16.666 26.8499 16.7185 26.5767 16.8209 26.3207L18.3658 22.4597C18.6069 21.8566 19.0233 21.3397 19.561 20.9755C20.0988 20.6113 20.7334 20.4166 21.3828 20.4165H28.4397ZM32.916 32.3332C32.6287 32.3332 32.3531 32.4473 32.15 32.6505C31.9468 32.8536 31.8327 33.1292 31.8327 33.4165C31.8327 33.7038 31.9468 33.9794 32.15 34.1825C32.3531 34.3857 32.6287 34.4998 32.916 34.4998C33.2033 34.4998 33.4789 34.3857 33.682 34.1825C33.8852 33.9794 33.9993 33.7038 33.9993 33.4165C33.9993 33.1292 33.8852 32.8536 33.682 32.6505C33.4789 32.4473 33.2033 32.3332 32.916 32.3332ZM22.0827 32.3332C21.7954 32.3332 21.5198 32.4473 21.3166 32.6505C21.1135 32.8536 20.9993 33.1292 20.9993 33.4165C20.9993 33.7038 21.1135 33.9794 21.3166 34.1825C21.5198 34.3857 21.7954 34.4998 22.0827 34.4998C22.37 34.4998 22.6455 34.3857 22.8487 34.1825C23.0519 33.9794 23.166 33.7038 23.166 33.4165C23.166 33.1292 23.0519 32.8536 22.8487 32.6505C22.6455 32.4473 22.37 32.3332 22.0827 32.3332ZM32.916 27.9717V27.9998H18.8327V31.2498C18.8327 31.5488 18.954 31.8197 19.149 32.0158C19.4184 31.4506 19.8453 30.9754 20.3784 30.6471C20.9115 30.3188 21.528 30.1514 22.154 30.1652C22.7799 30.1789 23.3885 30.3731 23.9066 30.7245C24.4248 31.0758 24.8305 31.5694 25.0748 32.1458L25.1485 32.3332H29.8523C30.0667 31.7271 30.456 31.1981 30.971 30.8132C31.486 30.4283 32.1035 30.2048 32.7455 30.1708C33.3875 30.1368 34.0252 30.294 34.5779 30.6224C35.1307 30.9508 35.5736 31.4357 35.8508 32.0158C36.0133 31.8522 36.1248 31.6366 36.1573 31.3972L36.166 31.2498V28.4148L33.3049 28.0573C33.2166 28.046 33.1291 28.0294 33.0428 28.0074L32.916 27.9717ZM28.4397 22.5832H26.416V25.8332H31.0028L29.3681 23.1097C29.272 22.9492 29.1359 22.8164 28.9732 22.7242C28.8105 22.6319 28.6267 22.5833 28.4397 22.5832ZM24.2493 22.5832H21.3828C21.1664 22.5833 20.9549 22.6483 20.7757 22.7698C20.5965 22.8912 20.4578 23.0636 20.3775 23.2646L19.3494 25.8332H24.2493V22.5832Z" fill="#009FE3"/>
</g>
<defs>
<clipPath id="clip0_1364_7035">
<rect width="26" height="26" fill="white" transform="translate(14.5 15)"/>
</clipPath>
</defs>
</svg>
