<svg width="435" height="168" viewBox="0 0 435 168" fill="none" xmlns="http://www.w3.org/2000/svg">
<rect width="434.529" height="167.388" fill="white"/>
<path d="M53.7444 24.4637C52.6351 24.4637 51.6751 24.2237 50.8644 23.7437C50.0644 23.2531 49.4458 22.5757 49.0084 21.7117C48.5818 20.8371 48.3684 19.8291 48.3684 18.6877C48.3684 17.5357 48.5818 16.5277 49.0084 15.6637C49.4458 14.7891 50.0644 14.1064 50.8644 13.6157C51.6751 13.1251 52.6351 12.8797 53.7444 12.8797C55.0778 12.8797 56.1658 13.2104 57.0084 13.8717C57.8511 14.5224 58.3844 15.4451 58.6084 16.6397H56.4964C56.3471 16.0104 56.0431 15.5144 55.5844 15.1517C55.1258 14.7891 54.5071 14.6077 53.7284 14.6077C53.0244 14.6077 52.4164 14.7731 51.9044 15.1037C51.4031 15.4237 51.0138 15.8931 50.7364 16.5117C50.4698 17.1197 50.3364 17.8451 50.3364 18.6877C50.3364 19.5304 50.4698 20.2557 50.7364 20.8637C51.0138 21.4611 51.4031 21.9251 51.9044 22.2557C52.4164 22.5757 53.0244 22.7357 53.7284 22.7357C54.5071 22.7357 55.1258 22.5704 55.5844 22.2397C56.0431 21.8984 56.3471 21.4291 56.4964 20.8317H58.6084C58.3951 21.9624 57.8618 22.8531 57.0084 23.5037C56.1658 24.1437 55.0778 24.4637 53.7444 24.4637ZM60.4232 24.2717V16.2077H62.1352L62.3112 17.7117C62.5032 17.3597 62.7432 17.0611 63.0312 16.8157C63.3192 16.5597 63.6552 16.3624 64.0392 16.2237C64.4339 16.0851 64.8659 16.0157 65.3352 16.0157V18.0477H64.6632C64.3432 18.0477 64.0392 18.0904 63.7512 18.1757C63.4632 18.2504 63.2125 18.3784 62.9992 18.5597C62.7965 18.7304 62.6365 18.9704 62.5192 19.2797C62.4019 19.5784 62.3432 19.9571 62.3432 20.4157V24.2717H60.4232ZM70.3867 24.4637C69.5867 24.4637 68.8827 24.2931 68.2747 23.9517C67.6667 23.5997 67.192 23.1091 66.8507 22.4797C66.5094 21.8504 66.3387 21.1251 66.3387 20.3037C66.3387 19.4504 66.504 18.7037 66.8347 18.0637C67.176 17.4237 67.6507 16.9224 68.2587 16.5597C68.8774 16.1971 69.592 16.0157 70.4027 16.0157C71.192 16.0157 71.88 16.1917 72.4667 16.5437C73.0534 16.8957 73.5067 17.3704 73.8267 17.9677C74.1467 18.5544 74.3067 19.2157 74.3067 19.9517C74.3067 20.0584 74.3067 20.1757 74.3067 20.3037C74.3067 20.4317 74.296 20.5651 74.2747 20.7037H67.7147V19.4717H72.3707C72.3494 18.8851 72.152 18.4264 71.7787 18.0957C71.4054 17.7544 70.9414 17.5837 70.3867 17.5837C69.992 17.5837 69.6294 17.6744 69.2987 17.8557C68.968 18.0371 68.7067 18.3091 68.5147 18.6717C68.3227 19.0237 68.2267 19.4717 68.2267 20.0157V20.4797C68.2267 20.9811 68.3174 21.4131 68.4987 21.7757C68.6907 22.1384 68.9467 22.4157 69.2667 22.6077C69.5974 22.7891 69.9654 22.8797 70.3707 22.8797C70.8187 22.8797 71.1867 22.7837 71.4747 22.5917C71.7734 22.3997 71.992 22.1437 72.1307 21.8237H74.0827C73.9334 22.3251 73.688 22.7784 73.3467 23.1837C73.0054 23.5784 72.584 23.8931 72.0827 24.1277C71.5814 24.3517 71.016 24.4637 70.3867 24.4637ZM79.6634 24.4637C78.9168 24.4637 78.2501 24.2824 77.6634 23.9197C77.0768 23.5571 76.6181 23.0557 76.2874 22.4157C75.9674 21.7757 75.8074 21.0504 75.8074 20.2397C75.8074 19.4291 75.9728 18.7091 76.3034 18.0797C76.6341 17.4397 77.0928 16.9384 77.6794 16.5757C78.2768 16.2024 78.9488 16.0157 79.6954 16.0157C80.3034 16.0157 80.8314 16.1331 81.2794 16.3677C81.7381 16.5917 82.1008 16.9117 82.3674 17.3277V12.7517H84.2874V24.2717H82.5594L82.3674 23.1037C82.1968 23.3384 81.9888 23.5624 81.7434 23.7757C81.4981 23.9784 81.2048 24.1437 80.8634 24.2717C80.5221 24.3997 80.1221 24.4637 79.6634 24.4637ZM80.0634 22.7997C80.5221 22.7997 80.9274 22.6931 81.2794 22.4797C81.6314 22.2557 81.9034 21.9517 82.0954 21.5677C82.2874 21.1837 82.3834 20.7411 82.3834 20.2397C82.3834 19.7384 82.2874 19.2957 82.0954 18.9117C81.9034 18.5277 81.6314 18.2291 81.2794 18.0157C80.9274 17.8024 80.5221 17.6957 80.0634 17.6957C79.6261 17.6957 79.2314 17.8024 78.8794 18.0157C78.5274 18.2291 78.2501 18.5277 78.0474 18.9117C77.8554 19.2957 77.7594 19.7384 77.7594 20.2397C77.7594 20.7411 77.8554 21.1837 78.0474 21.5677C78.2501 21.9517 78.5274 22.2557 78.8794 22.4797C79.2314 22.6931 79.6261 22.7997 80.0634 22.7997ZM86.5032 24.2717V16.2077H88.4232V24.2717H86.5032ZM87.4632 14.9277C87.1112 14.9277 86.8179 14.8211 86.5832 14.6077C86.3592 14.3837 86.2472 14.1117 86.2472 13.7917C86.2472 13.4611 86.3592 13.1944 86.5832 12.9917C86.8179 12.7784 87.1112 12.6717 87.4632 12.6717C87.8152 12.6717 88.1032 12.7784 88.3272 12.9917C88.5619 13.1944 88.6792 13.4611 88.6792 13.7917C88.6792 14.1117 88.5619 14.3837 88.3272 14.6077C88.1032 14.8211 87.8152 14.9277 87.4632 14.9277ZM94.1459 24.2717C93.6019 24.2717 93.1273 24.1864 92.7219 24.0157C92.3273 23.8451 92.0179 23.5624 91.7939 23.1677C91.5699 22.7731 91.4579 22.2397 91.4579 21.5677V17.8237H90.0819V16.2077H91.4579L91.6819 14.0797H93.3779V16.2077H95.5699V17.8237H93.3779V21.5677C93.3779 21.9731 93.4633 22.2557 93.6339 22.4157C93.8153 22.5651 94.1139 22.6397 94.5299 22.6397H95.5219V24.2717H94.1459ZM105.107 24.4637C104.296 24.4637 103.576 24.3197 102.947 24.0317C102.317 23.7437 101.827 23.3331 101.475 22.7997C101.123 22.2664 100.941 21.6317 100.931 20.8957H102.963C102.963 21.2691 103.048 21.6051 103.219 21.9037C103.4 22.1917 103.645 22.4211 103.955 22.5917C104.275 22.7624 104.659 22.8477 105.107 22.8477C105.491 22.8477 105.821 22.7891 106.099 22.6717C106.387 22.5437 106.605 22.3677 106.755 22.1437C106.915 21.9091 106.995 21.6371 106.995 21.3277C106.995 20.9757 106.909 20.6877 106.739 20.4637C106.579 20.2291 106.355 20.0317 106.067 19.8717C105.779 19.7117 105.448 19.5731 105.075 19.4557C104.701 19.3277 104.307 19.1944 103.891 19.0557C103.005 18.7571 102.339 18.3784 101.891 17.9197C101.443 17.4504 101.219 16.8264 101.219 16.0477C101.219 15.3971 101.373 14.8371 101.683 14.3677C101.992 13.8984 102.424 13.5357 102.979 13.2797C103.544 13.0131 104.195 12.8797 104.931 12.8797C105.677 12.8797 106.328 13.0131 106.883 13.2797C107.448 13.5464 107.891 13.9197 108.211 14.3997C108.541 14.8691 108.712 15.4344 108.723 16.0957H106.675C106.664 15.8184 106.589 15.5624 106.451 15.3277C106.312 15.0824 106.109 14.8851 105.843 14.7357C105.587 14.5757 105.272 14.4957 104.899 14.4957C104.579 14.4851 104.291 14.5384 104.035 14.6557C103.789 14.7624 103.592 14.9224 103.443 15.1357C103.304 15.3384 103.235 15.5944 103.235 15.9037C103.235 16.2024 103.299 16.4531 103.427 16.6557C103.565 16.8477 103.763 17.0131 104.019 17.1517C104.275 17.2797 104.573 17.4024 104.915 17.5197C105.256 17.6371 105.629 17.7651 106.035 17.9037C106.589 18.0851 107.091 18.3091 107.539 18.5757C107.997 18.8317 108.36 19.1677 108.627 19.5837C108.893 19.9997 109.027 20.5384 109.027 21.1997C109.027 21.7757 108.877 22.3144 108.579 22.8157C108.28 23.3064 107.843 23.7064 107.267 24.0157C106.691 24.3144 105.971 24.4637 105.107 24.4637ZM114.653 24.4637C113.864 24.4637 113.155 24.2877 112.525 23.9357C111.907 23.5731 111.421 23.0771 111.069 22.4477C110.728 21.8077 110.557 21.0824 110.557 20.2717C110.557 19.4291 110.728 18.6931 111.069 18.0637C111.421 17.4237 111.907 16.9224 112.525 16.5597C113.155 16.1971 113.869 16.0157 114.669 16.0157C115.672 16.0157 116.515 16.2824 117.197 16.8157C117.88 17.3384 118.317 18.0584 118.509 18.9757H116.493C116.387 18.5704 116.163 18.2504 115.821 18.0157C115.491 17.7811 115.096 17.6637 114.637 17.6637C114.243 17.6637 113.88 17.7651 113.549 17.9677C113.229 18.1704 112.973 18.4637 112.781 18.8477C112.6 19.2317 112.509 19.6957 112.509 20.2397C112.509 20.6557 112.563 21.0237 112.669 21.3437C112.776 21.6637 112.925 21.9357 113.117 22.1597C113.32 22.3731 113.549 22.5384 113.805 22.6557C114.061 22.7731 114.339 22.8317 114.637 22.8317C114.947 22.8317 115.224 22.7837 115.469 22.6877C115.725 22.5811 115.939 22.4264 116.109 22.2237C116.291 22.0211 116.419 21.7811 116.493 21.5037H118.509C118.317 22.3997 117.88 23.1197 117.197 23.6637C116.515 24.1971 115.667 24.4637 114.653 24.4637ZM124.121 24.4637C123.353 24.4637 122.659 24.2877 122.041 23.9357C121.433 23.5731 120.953 23.0771 120.601 22.4477C120.259 21.8077 120.089 21.0771 120.089 20.2557C120.089 19.4131 120.265 18.6771 120.617 18.0477C120.969 17.4077 121.449 16.9117 122.057 16.5597C122.675 16.1971 123.369 16.0157 124.137 16.0157C124.905 16.0157 125.593 16.1971 126.201 16.5597C126.819 16.9117 127.299 17.4024 127.641 18.0317C127.993 18.6611 128.169 19.3971 128.169 20.2397C128.169 21.0824 127.993 21.8184 127.641 22.4477C127.289 23.0771 126.803 23.5731 126.185 23.9357C125.577 24.2877 124.889 24.4637 124.121 24.4637ZM124.121 22.8157C124.505 22.8157 124.851 22.7197 125.161 22.5277C125.481 22.3357 125.737 22.0477 125.929 21.6637C126.121 21.2797 126.217 20.8051 126.217 20.2397C126.217 19.6744 126.121 19.2051 125.929 18.8317C125.747 18.4477 125.497 18.1597 125.177 17.9677C124.867 17.7757 124.521 17.6797 124.137 17.6797C123.763 17.6797 123.417 17.7757 123.097 17.9677C122.777 18.1597 122.521 18.4477 122.329 18.8317C122.137 19.2051 122.041 19.6744 122.041 20.2397C122.041 20.8051 122.137 21.2797 122.329 21.6637C122.521 22.0477 122.771 22.3357 123.081 22.5277C123.401 22.7197 123.747 22.8157 124.121 22.8157ZM130.048 24.2717V16.2077H131.76L131.936 17.7117C132.128 17.3597 132.368 17.0611 132.656 16.8157C132.944 16.5597 133.28 16.3624 133.664 16.2237C134.059 16.0851 134.491 16.0157 134.96 16.0157V18.0477H134.288C133.968 18.0477 133.664 18.0904 133.376 18.1757C133.088 18.2504 132.838 18.3784 132.624 18.5597C132.422 18.7304 132.262 18.9704 132.144 19.2797C132.027 19.5784 131.968 19.9571 131.968 20.4157V24.2717H130.048ZM140.012 24.4637C139.212 24.4637 138.508 24.2931 137.9 23.9517C137.292 23.5997 136.817 23.1091 136.476 22.4797C136.134 21.8504 135.964 21.1251 135.964 20.3037C135.964 19.4504 136.129 18.7037 136.46 18.0637C136.801 17.4237 137.276 16.9224 137.884 16.5597C138.502 16.1971 139.217 16.0157 140.028 16.0157C140.817 16.0157 141.505 16.1917 142.092 16.5437C142.678 16.8957 143.132 17.3704 143.452 17.9677C143.772 18.5544 143.932 19.2157 143.932 19.9517C143.932 20.0584 143.932 20.1757 143.932 20.3037C143.932 20.4317 143.921 20.5651 143.9 20.7037H137.34V19.4717H141.996C141.974 18.8851 141.777 18.4264 141.404 18.0957C141.03 17.7544 140.566 17.5837 140.012 17.5837C139.617 17.5837 139.254 17.6744 138.924 17.8557C138.593 18.0371 138.332 18.3091 138.14 18.6717C137.948 19.0237 137.852 19.4717 137.852 20.0157V20.4797C137.852 20.9811 137.942 21.4131 138.124 21.7757C138.316 22.1384 138.572 22.4157 138.892 22.6077C139.222 22.7891 139.59 22.8797 139.996 22.8797C140.444 22.8797 140.812 22.7837 141.1 22.5917C141.398 22.3997 141.617 22.1437 141.756 21.8237H143.708C143.558 22.3251 143.313 22.7784 142.972 23.1837C142.63 23.5784 142.209 23.8931 141.708 24.1277C141.206 24.3517 140.641 24.4637 140.012 24.4637Z" fill="#373736"/>
<mask id="mask0_1380_9629" style="mask-type:alpha" maskUnits="userSpaceOnUse" x="9" y="38" width="174" height="86">
<rect x="9.48749" y="38.2935" width="173.29" height="84.8013" fill="#D9D9D9"/>
</mask>
<g mask="url(#mask0_1380_9629)">
<path d="M182.777 123.095C182.777 100.604 173.649 79.0345 157.4 63.1312C141.151 47.2279 119.112 38.2935 96.1326 38.2935C73.153 38.2935 51.1145 47.2279 34.8654 63.1312C18.6164 79.0345 9.48774 100.604 9.48773 123.095L26.8167 123.095C26.8167 105.102 34.1196 87.8466 47.1189 75.1239C60.1181 62.4012 77.7489 55.2537 96.1326 55.2537C114.516 55.2537 132.147 62.4012 145.146 75.1239C158.146 87.8466 165.448 105.102 165.448 123.095H182.777Z" fill="#EBEBEB"/>
<path d="M167.655 75.2284C157.208 60.2752 142.142 48.9892 124.666 43.0236C107.19 37.0581 88.2207 36.7267 70.538 42.0777C52.8552 47.4288 37.3879 58.1813 26.4018 72.76C15.4157 87.3387 9.48827 104.977 9.48773 123.092L26.8167 123.093C26.8171 108.601 31.5591 94.4899 40.348 82.8269C49.1368 71.164 61.5107 62.562 75.6569 58.2812C89.8031 54.0003 104.978 54.2655 118.959 59.0379C132.94 63.8103 144.993 72.8391 153.35 84.8017L167.655 75.2284Z" fill="#2A6AE6"/>
</g>
<path d="M79.2633 120.97L84.3787 109.359H77.7612V106.761H87.5048V108.892L82.4097 120.97H79.2633ZM94.7165 121.214C93.6339 121.214 92.7204 121.018 91.9761 120.625C91.2318 120.219 90.6364 119.685 90.1898 119.021C89.7432 118.358 89.4184 117.621 89.2154 116.809C89.026 115.983 88.9312 115.144 88.9312 114.292C88.9312 112.695 89.1545 111.321 89.6011 110.171C90.0477 109.007 90.6905 108.107 91.5295 107.471C92.3821 106.835 93.4106 106.517 94.615 106.517C95.6435 106.517 96.5096 106.713 97.2133 107.106C97.917 107.498 98.4583 108.013 98.8372 108.649C99.2161 109.285 99.4394 109.961 99.5071 110.679H96.6652C96.5705 110.137 96.3404 109.724 95.975 109.44C95.6232 109.143 95.1631 108.994 94.5947 108.994C94.0534 108.994 93.5865 109.163 93.1941 109.501C92.8016 109.826 92.4971 110.313 92.2806 110.963C92.0641 111.612 91.9423 112.418 91.9152 113.378C91.9152 113.392 91.9152 113.412 91.9152 113.439C91.9152 113.466 91.9152 113.487 91.9152 113.5C92.1182 113.148 92.3956 112.844 92.7475 112.587C93.0993 112.33 93.4918 112.127 93.9248 111.978C94.3579 111.829 94.8045 111.754 95.2646 111.754C96.0495 111.754 96.7802 111.944 97.4569 112.323C98.1335 112.688 98.6748 113.223 99.0808 113.926C99.5003 114.617 99.7101 115.435 99.7101 116.383C99.7101 117.262 99.4936 118.074 99.0605 118.819C98.641 119.549 98.0523 120.131 97.2945 120.564C96.5502 120.997 95.6909 121.214 94.7165 121.214ZM94.5541 118.616C94.9872 118.616 95.3728 118.528 95.7112 118.352C96.0495 118.162 96.3134 117.905 96.5028 117.58C96.7058 117.255 96.8073 116.89 96.8073 116.484C96.8073 116.038 96.7058 115.659 96.5028 115.347C96.3134 115.023 96.0427 114.772 95.6909 114.596C95.3525 114.407 94.9601 114.312 94.5135 114.312C94.0805 114.312 93.6948 114.4 93.3565 114.576C93.0181 114.752 92.7475 115.002 92.5445 115.327C92.3415 115.652 92.24 116.024 92.24 116.444C92.24 116.863 92.3415 117.242 92.5445 117.58C92.7475 117.905 93.0181 118.162 93.3565 118.352C93.7083 118.528 94.1075 118.616 94.5541 118.616ZM107.337 121.214C106.349 121.214 105.456 121.038 104.658 120.686C103.859 120.334 103.217 119.84 102.729 119.204C102.256 118.555 102.019 117.804 102.019 116.951C102.019 116.369 102.114 115.848 102.303 115.388C102.493 114.914 102.756 114.502 103.095 114.15C103.433 113.784 103.839 113.5 104.313 113.297C103.731 112.999 103.257 112.6 102.892 112.099C102.54 111.585 102.364 110.997 102.364 110.333C102.364 109.67 102.547 109.048 102.912 108.466C103.291 107.884 103.846 107.417 104.577 107.065C105.307 106.7 106.228 106.517 107.337 106.517C108.433 106.517 109.347 106.7 110.078 107.065C110.822 107.417 111.37 107.884 111.722 108.466C112.087 109.048 112.27 109.67 112.27 110.333C112.27 110.97 112.087 111.551 111.722 112.079C111.37 112.607 110.91 113.013 110.342 113.297C110.815 113.514 111.221 113.805 111.56 114.17C111.911 114.522 112.175 114.928 112.351 115.388C112.541 115.848 112.635 116.369 112.635 116.951C112.635 117.804 112.399 118.555 111.925 119.204C111.451 119.84 110.815 120.334 110.017 120.686C109.218 121.038 108.325 121.214 107.337 121.214ZM107.337 118.697C108.095 118.697 108.67 118.507 109.063 118.128C109.455 117.736 109.651 117.255 109.651 116.687C109.651 116.065 109.448 115.571 109.042 115.205C108.636 114.826 108.068 114.637 107.337 114.637C106.593 114.637 106.011 114.826 105.592 115.205C105.186 115.571 104.983 116.065 104.983 116.687C104.983 117.255 105.186 117.736 105.592 118.128C105.998 118.507 106.579 118.697 107.337 118.697ZM107.337 112.445C107.96 112.445 108.44 112.282 108.779 111.957C109.13 111.633 109.306 111.22 109.306 110.719C109.306 110.178 109.137 109.752 108.799 109.44C108.461 109.129 107.973 108.973 107.337 108.973C106.701 108.973 106.214 109.129 105.876 109.44C105.537 109.752 105.368 110.185 105.368 110.739C105.368 111.24 105.537 111.653 105.876 111.978C106.214 112.289 106.701 112.445 107.337 112.445Z" fill="#0A0A0A"/>
<path d="M42.6198 134.97H43.5886V140.267C43.5886 140.814 43.4597 141.302 43.2018 141.732C42.9466 142.159 42.586 142.496 42.1198 142.744C41.6537 142.988 41.1068 143.111 40.4792 143.111C39.8516 143.111 39.3047 142.988 38.8386 142.744C38.3724 142.496 38.0104 142.159 37.7526 141.732C37.4974 141.302 37.3698 140.814 37.3698 140.267V134.97H38.3386V140.189C38.3386 140.58 38.4245 140.927 38.5964 141.232C38.7682 141.534 39.013 141.772 39.3307 141.947C39.6511 142.119 40.0339 142.205 40.4792 142.205C40.9245 142.205 41.3073 142.119 41.6276 141.947C41.9479 141.772 42.1927 141.534 42.362 141.232C42.5339 140.927 42.6198 140.58 42.6198 140.189V134.97ZM45.3981 145.22V136.97H46.2888V137.923H46.3981C46.4658 137.819 46.5596 137.686 46.6794 137.525C46.8018 137.361 46.9763 137.215 47.2028 137.087C47.432 136.957 47.7419 136.892 48.1325 136.892C48.6377 136.892 49.083 137.018 49.4684 137.271C49.8539 137.524 50.1546 137.882 50.3708 138.345C50.5869 138.809 50.695 139.356 50.695 139.986C50.695 140.621 50.5869 141.172 50.3708 141.638C50.1546 142.102 49.8552 142.461 49.4724 142.716C49.0895 142.969 48.6481 143.095 48.1481 143.095C47.7627 143.095 47.4541 143.031 47.2224 142.904C46.9906 142.774 46.8122 142.626 46.6872 142.462C46.5622 142.296 46.4658 142.158 46.3981 142.048H46.32V145.22H45.3981ZM46.3044 139.97C46.3044 140.423 46.3708 140.823 46.5036 141.169C46.6364 141.513 46.8304 141.783 47.0856 141.978C47.3408 142.171 47.6533 142.267 48.0231 142.267C48.4085 142.267 48.7302 142.166 48.988 141.962C49.2484 141.757 49.4437 141.481 49.5739 141.134C49.7067 140.785 49.7731 140.397 49.7731 139.97C49.7731 139.548 49.708 139.168 49.5778 138.83C49.4502 138.488 49.2562 138.219 48.9958 138.021C48.738 137.82 48.4138 137.72 48.0231 137.72C47.6481 137.72 47.333 137.815 47.0778 138.005C46.8226 138.193 46.6299 138.456 46.4997 138.794C46.3695 139.13 46.3044 139.522 46.3044 139.97ZM54.3669 143.095C53.8669 143.095 53.4255 142.969 53.0427 142.716C52.6599 142.461 52.3604 142.102 52.1442 141.638C51.9281 141.172 51.82 140.621 51.82 139.986C51.82 139.356 51.9281 138.809 52.1442 138.345C52.3604 137.882 52.6612 137.524 53.0466 137.271C53.432 137.018 53.8773 136.892 54.3825 136.892C54.7731 136.892 55.0817 136.957 55.3083 137.087C55.5375 137.215 55.7119 137.361 55.8317 137.525C55.9541 137.686 56.0492 137.819 56.1169 137.923H56.195V134.97H57.1169V142.97H56.2263V142.048H56.1169C56.0492 142.158 55.9528 142.296 55.8278 142.462C55.7028 142.626 55.5244 142.774 55.2927 142.904C55.0609 143.031 54.7523 143.095 54.3669 143.095ZM54.4919 142.267C54.8617 142.267 55.1742 142.171 55.4294 141.978C55.6846 141.783 55.8786 141.513 56.0114 141.169C56.1442 140.823 56.2106 140.423 56.2106 139.97C56.2106 139.522 56.1455 139.13 56.0153 138.794C55.8851 138.456 55.6924 138.193 55.4372 138.005C55.182 137.815 54.8669 137.72 54.4919 137.72C54.1013 137.72 53.7757 137.82 53.5153 138.021C53.2575 138.219 53.0635 138.488 52.9333 138.83C52.8057 139.168 52.7419 139.548 52.7419 139.97C52.7419 140.397 52.807 140.785 52.9372 141.134C53.07 141.481 53.2653 141.757 53.5231 141.962C53.7835 142.166 54.1065 142.267 54.4919 142.267ZM60.6989 143.111C60.3187 143.111 59.9737 143.039 59.6638 142.896C59.3539 142.75 59.1078 142.541 58.9255 142.267C58.7432 141.991 58.652 141.658 58.652 141.267C58.652 140.923 58.7197 140.645 58.8552 140.431C58.9906 140.215 59.1716 140.046 59.3981 139.923C59.6247 139.801 59.8747 139.71 60.1481 139.65C60.4242 139.587 60.7015 139.538 60.9802 139.501C61.3447 139.455 61.6403 139.419 61.8669 139.396C62.096 139.37 62.2627 139.327 62.3669 139.267C62.4737 139.207 62.527 139.103 62.527 138.955V138.923C62.527 138.538 62.4216 138.238 62.2106 138.025C62.0023 137.811 61.6859 137.705 61.2614 137.705C60.8213 137.705 60.4763 137.801 60.2263 137.994C59.9763 138.186 59.8005 138.392 59.6989 138.611L58.8239 138.298C58.9802 137.934 59.1885 137.65 59.4489 137.447C59.7119 137.241 59.9984 137.098 60.3083 137.017C60.6208 136.934 60.9281 136.892 61.2302 136.892C61.4229 136.892 61.6442 136.916 61.8942 136.962C62.1468 137.007 62.3903 137.099 62.6247 137.24C62.8617 137.38 63.0583 137.593 63.2145 137.876C63.3708 138.16 63.4489 138.541 63.4489 139.017V142.97H62.527V142.158H62.4802C62.4177 142.288 62.3135 142.427 62.1677 142.576C62.0218 142.724 61.8278 142.85 61.5856 142.955C61.3434 143.059 61.0479 143.111 60.6989 143.111ZM60.8395 142.283C61.2041 142.283 61.5114 142.211 61.7614 142.068C62.014 141.925 62.2041 141.74 62.3317 141.513C62.4619 141.287 62.527 141.048 62.527 140.798V139.955C62.488 140.001 62.402 140.044 62.2692 140.083C62.139 140.12 61.988 140.153 61.8161 140.181C61.6468 140.207 61.4815 140.231 61.32 140.251C61.1612 140.27 61.0322 140.285 60.9333 140.298C60.6937 140.33 60.4697 140.38 60.2614 140.451C60.0557 140.518 59.889 140.621 59.7614 140.759C59.6364 140.895 59.5739 141.08 59.5739 141.314C59.5739 141.634 59.6924 141.876 59.9294 142.041C60.169 142.202 60.4724 142.283 60.8395 142.283ZM67.7409 136.97V137.751H64.6315V136.97H67.7409ZM65.5378 135.533H66.4597V141.251C66.4597 141.512 66.4974 141.707 66.5729 141.837C66.6511 141.965 66.75 142.051 66.8698 142.095C66.9922 142.137 67.1211 142.158 67.2565 142.158C67.3581 142.158 67.4414 142.153 67.5065 142.142C67.5716 142.129 67.6237 142.119 67.6628 142.111L67.8503 142.939C67.7878 142.962 67.7005 142.986 67.5886 143.009C67.4766 143.035 67.3347 143.048 67.1628 143.048C66.9024 143.048 66.6472 142.992 66.3972 142.88C66.1498 142.768 65.944 142.598 65.78 142.369C65.6185 142.139 65.5378 141.85 65.5378 141.501V135.533ZM71.5788 143.095C71.0007 143.095 70.502 142.968 70.0827 142.712C69.666 142.455 69.3444 142.095 69.1179 141.634C68.8939 141.171 68.7819 140.632 68.7819 140.017C68.7819 139.403 68.8939 138.861 69.1179 138.392C69.3444 137.921 69.6595 137.554 70.0632 137.291C70.4694 137.025 70.9434 136.892 71.485 136.892C71.7975 136.892 72.1061 136.944 72.4108 137.048C72.7155 137.153 72.9929 137.322 73.2429 137.556C73.4929 137.788 73.6921 138.095 73.8405 138.478C73.989 138.861 74.0632 139.332 74.0632 139.892V140.283H69.4382V139.486H73.1257C73.1257 139.147 73.058 138.845 72.9225 138.58C72.7897 138.314 72.5996 138.104 72.3522 137.951C72.1074 137.797 71.8184 137.72 71.485 137.72C71.1179 137.72 70.8002 137.811 70.5319 137.994C70.2663 138.173 70.0619 138.408 69.9186 138.697C69.7754 138.986 69.7038 139.296 69.7038 139.626V140.158C69.7038 140.611 69.7819 140.995 69.9382 141.31C70.097 141.623 70.3171 141.861 70.5983 142.025C70.8796 142.186 71.2064 142.267 71.5788 142.267C71.821 142.267 72.0397 142.233 72.235 142.166C72.433 142.095 72.6035 141.991 72.7468 141.853C72.89 141.712 73.0007 141.538 73.0788 141.33L73.9694 141.58C73.8757 141.882 73.7181 142.147 73.4968 142.376C73.2754 142.603 73.002 142.78 72.6765 142.908C72.3509 143.033 71.985 143.095 71.5788 143.095ZM77.7311 143.095C77.2311 143.095 76.7897 142.969 76.4069 142.716C76.0241 142.461 75.7246 142.102 75.5085 141.638C75.2923 141.172 75.1843 140.621 75.1843 139.986C75.1843 139.356 75.2923 138.809 75.5085 138.345C75.7246 137.882 76.0254 137.524 76.4108 137.271C76.7962 137.018 77.2416 136.892 77.7468 136.892C78.1374 136.892 78.446 136.957 78.6725 137.087C78.9017 137.215 79.0762 137.361 79.196 137.525C79.3184 137.686 79.4134 137.819 79.4811 137.923H79.5593V134.97H80.4811V142.97H79.5905V142.048H79.4811C79.4134 142.158 79.3171 142.296 79.1921 142.462C79.0671 142.626 78.8887 142.774 78.6569 142.904C78.4252 143.031 78.1166 143.095 77.7311 143.095ZM77.8561 142.267C78.2259 142.267 78.5384 142.171 78.7936 141.978C79.0488 141.783 79.2429 141.513 79.3757 141.169C79.5085 140.823 79.5749 140.423 79.5749 139.97C79.5749 139.522 79.5098 139.13 79.3796 138.794C79.2494 138.456 79.0567 138.193 78.8015 138.005C78.5462 137.815 78.2311 137.72 77.8561 137.72C77.4655 137.72 77.14 137.82 76.8796 138.021C76.6218 138.219 76.4278 138.488 76.2975 138.83C76.1699 139.168 76.1061 139.548 76.1061 139.97C76.1061 140.397 76.1712 140.785 76.3015 141.134C76.4343 141.481 76.6296 141.757 76.8874 141.962C77.1478 142.166 77.4707 142.267 77.8561 142.267ZM91.86 134.97V142.97H90.9225L86.5632 136.689H86.485V142.97H85.5163V134.97H86.4538L90.8288 141.267H90.9069V134.97H91.86ZM96.111 143.095C95.5694 143.095 95.0941 142.966 94.6852 142.708C94.279 142.451 93.9613 142.09 93.7321 141.626C93.5056 141.163 93.3923 140.621 93.3923 140.001C93.3923 139.376 93.5056 138.831 93.7321 138.365C93.9613 137.899 94.279 137.537 94.6852 137.279C95.0941 137.021 95.5694 136.892 96.111 136.892C96.6527 136.892 97.1266 137.021 97.5329 137.279C97.9418 137.537 98.2595 137.899 98.486 138.365C98.7152 138.831 98.8298 139.376 98.8298 140.001C98.8298 140.621 98.7152 141.163 98.486 141.626C98.2595 142.09 97.9418 142.451 97.5329 142.708C97.1266 142.966 96.6527 143.095 96.111 143.095ZM96.111 142.267C96.5225 142.267 96.861 142.162 97.1266 141.951C97.3923 141.74 97.5889 141.462 97.7165 141.119C97.8441 140.775 97.9079 140.403 97.9079 140.001C97.9079 139.6 97.8441 139.227 97.7165 138.88C97.5889 138.534 97.3923 138.254 97.1266 138.041C96.861 137.827 96.5225 137.72 96.111 137.72C95.6996 137.72 95.361 137.827 95.0954 138.041C94.8298 138.254 94.6332 138.534 94.5056 138.88C94.378 139.227 94.3141 139.6 94.3141 140.001C94.3141 140.403 94.378 140.775 94.5056 141.119C94.6332 141.462 94.8298 141.74 95.0954 141.951C95.361 142.162 95.6996 142.267 96.111 142.267ZM104.928 136.97L102.71 142.97H101.772L99.5534 136.97H100.553L102.21 141.751H102.272L103.928 136.97H104.928ZM109.223 142.97V142.267L111.864 139.376C112.174 139.038 112.429 138.744 112.63 138.494C112.83 138.241 112.979 138.004 113.075 137.783C113.174 137.559 113.223 137.324 113.223 137.08C113.223 136.798 113.156 136.555 113.02 136.349C112.887 136.143 112.705 135.985 112.473 135.873C112.242 135.761 111.981 135.705 111.692 135.705C111.385 135.705 111.117 135.768 110.887 135.896C110.661 136.021 110.485 136.197 110.36 136.423C110.238 136.65 110.176 136.916 110.176 137.22H109.255C109.255 136.751 109.363 136.34 109.579 135.986C109.795 135.632 110.089 135.356 110.462 135.158C110.837 134.96 111.257 134.861 111.723 134.861C112.192 134.861 112.607 134.96 112.969 135.158C113.331 135.356 113.615 135.623 113.821 135.958C114.027 136.294 114.13 136.668 114.13 137.08C114.13 137.374 114.076 137.662 113.969 137.943C113.865 138.222 113.683 138.533 113.423 138.876C113.165 139.218 112.807 139.634 112.348 140.126L110.551 142.048V142.111H114.27V142.97H109.223ZM115.524 141.33V140.533L119.04 134.97H119.618V136.205H119.227L116.571 140.408V140.47H121.305V141.33H115.524ZM119.29 142.97V141.087V140.716V134.97H120.212V142.97H119.29ZM123.784 141.876L123.721 142.298C123.677 142.595 123.609 142.913 123.518 143.251C123.43 143.59 123.337 143.909 123.241 144.208C123.145 144.508 123.065 144.746 123.003 144.923H122.299C122.333 144.757 122.378 144.537 122.432 144.263C122.487 143.99 122.542 143.684 122.596 143.345C122.654 143.009 122.701 142.666 122.737 142.314L122.784 141.876H123.784ZM128.57 142.97V142.267L131.211 139.376C131.521 139.038 131.776 138.744 131.976 138.494C132.177 138.241 132.325 138.004 132.422 137.783C132.521 137.559 132.57 137.324 132.57 137.08C132.57 136.798 132.502 136.555 132.367 136.349C132.234 136.143 132.052 135.985 131.82 135.873C131.588 135.761 131.328 135.705 131.039 135.705C130.731 135.705 130.463 135.768 130.234 135.896C130.008 136.021 129.832 136.197 129.707 136.423C129.584 136.65 129.523 136.916 129.523 137.22H128.601C128.601 136.751 128.709 136.34 128.925 135.986C129.142 135.632 129.436 135.356 129.808 135.158C130.183 134.96 130.604 134.861 131.07 134.861C131.539 134.861 131.954 134.96 132.316 135.158C132.678 135.356 132.962 135.623 133.168 135.958C133.373 136.294 133.476 136.668 133.476 137.08C133.476 137.374 133.423 137.662 133.316 137.943C133.212 138.222 133.03 138.533 132.769 138.876C132.511 139.218 132.153 139.634 131.695 140.126L129.898 142.048V142.111H133.617V142.97H128.57ZM137.84 143.08C137.251 143.08 136.75 142.919 136.336 142.599C135.922 142.276 135.605 141.809 135.386 141.197C135.168 140.582 135.058 139.84 135.058 138.97C135.058 138.106 135.168 137.367 135.386 136.755C135.608 136.141 135.925 135.672 136.34 135.349C136.756 135.024 137.256 134.861 137.84 134.861C138.423 134.861 138.922 135.024 139.336 135.349C139.752 135.672 140.07 136.141 140.289 136.755C140.51 137.367 140.621 138.106 140.621 138.97C140.621 139.84 140.511 140.582 140.293 141.197C140.074 141.809 139.758 142.276 139.343 142.599C138.929 142.919 138.428 143.08 137.84 143.08ZM137.84 142.22C138.423 142.22 138.876 141.939 139.199 141.376C139.522 140.814 139.683 140.012 139.683 138.97C139.683 138.278 139.609 137.688 139.461 137.201C139.315 136.714 139.104 136.343 138.828 136.087C138.554 135.832 138.225 135.705 137.84 135.705C137.261 135.705 136.81 135.99 136.484 136.56C136.159 137.128 135.996 137.931 135.996 138.97C135.996 139.663 136.069 140.251 136.215 140.736C136.36 141.22 136.57 141.589 136.843 141.841C137.119 142.094 137.452 142.22 137.84 142.22ZM142.105 142.97V142.267L144.746 139.376C145.056 139.038 145.311 138.744 145.511 138.494C145.712 138.241 145.86 138.004 145.957 137.783C146.056 137.559 146.105 137.324 146.105 137.08C146.105 136.798 146.037 136.555 145.902 136.349C145.769 136.143 145.587 135.985 145.355 135.873C145.123 135.761 144.863 135.705 144.574 135.705C144.267 135.705 143.998 135.768 143.769 135.896C143.543 136.021 143.367 136.197 143.242 136.423C143.119 136.65 143.058 136.916 143.058 137.22H142.136C142.136 136.751 142.244 136.34 142.461 135.986C142.677 135.632 142.971 135.356 143.343 135.158C143.718 134.96 144.139 134.861 144.605 134.861C145.074 134.861 145.489 134.96 145.851 135.158C146.213 135.356 146.497 135.623 146.703 135.958C146.909 136.294 147.011 136.668 147.011 137.08C147.011 137.374 146.958 137.662 146.851 137.943C146.747 138.222 146.565 138.533 146.304 138.876C146.047 139.218 145.688 139.634 145.23 140.126L143.433 142.048V142.111H147.152V142.97H142.105ZM148.765 142.97V142.267L151.406 139.376C151.716 139.038 151.971 138.744 152.172 138.494C152.372 138.241 152.521 138.004 152.617 137.783C152.716 137.559 152.765 137.324 152.765 137.08C152.765 136.798 152.698 136.555 152.562 136.349C152.429 136.143 152.247 135.985 152.015 135.873C151.784 135.761 151.523 135.705 151.234 135.705C150.927 135.705 150.659 135.768 150.429 135.896C150.203 136.021 150.027 136.197 149.902 136.423C149.78 136.65 149.718 136.916 149.718 137.22H148.797C148.797 136.751 148.905 136.34 149.121 135.986C149.337 135.632 149.631 135.356 150.004 135.158C150.379 134.96 150.799 134.861 151.265 134.861C151.734 134.861 152.149 134.96 152.511 135.158C152.873 135.356 153.157 135.623 153.363 135.958C153.569 136.294 153.672 136.668 153.672 137.08C153.672 137.374 153.618 137.662 153.511 137.943C153.407 138.222 153.225 138.533 152.965 138.876C152.707 139.218 152.349 139.634 151.89 140.126L150.093 142.048V142.111H153.812V142.97H148.765Z" fill="#615E83"/>
<path d="M297.221 24.2717V13.0717H301.237C302.122 13.0717 302.853 13.2264 303.429 13.5357C304.015 13.8344 304.447 14.2397 304.725 14.7517C305.013 15.2531 305.157 15.8237 305.157 16.4637C305.157 17.0611 305.018 17.6157 304.741 18.1277C304.463 18.6397 304.031 19.0504 303.445 19.3597C302.858 19.6691 302.106 19.8237 301.189 19.8237H299.141V24.2717H297.221ZM303.061 24.2717L300.709 19.3277H302.789L305.253 24.2717H303.061ZM299.141 18.3997H301.109C301.823 18.3997 302.346 18.2291 302.677 17.8877C303.018 17.5357 303.189 17.0771 303.189 16.5117C303.189 15.9571 303.023 15.5144 302.693 15.1837C302.362 14.8424 301.834 14.6717 301.109 14.6717H299.141V18.3997ZM307.158 24.2717V16.2077H309.078V24.2717H307.158ZM308.118 14.9277C307.766 14.9277 307.473 14.8211 307.238 14.6077C307.014 14.3837 306.902 14.1117 306.902 13.7917C306.902 13.4611 307.014 13.1944 307.238 12.9917C307.473 12.7784 307.766 12.6717 308.118 12.6717C308.47 12.6717 308.758 12.7784 308.982 12.9917C309.217 13.1944 309.334 13.4611 309.334 13.7917C309.334 14.1117 309.217 14.3837 308.982 14.6077C308.758 14.8211 308.47 14.9277 308.118 14.9277ZM314.513 24.4637C313.799 24.4637 313.175 24.3517 312.641 24.1277C312.119 23.8931 311.703 23.5731 311.393 23.1677C311.095 22.7517 310.919 22.2771 310.865 21.7437H312.785C312.839 21.9677 312.935 22.1757 313.073 22.3677C313.212 22.5491 313.399 22.6931 313.633 22.7997C313.879 22.9064 314.167 22.9597 314.497 22.9597C314.817 22.9597 315.079 22.9171 315.281 22.8317C315.484 22.7357 315.633 22.6131 315.729 22.4637C315.825 22.3144 315.873 22.1544 315.873 21.9837C315.873 21.7277 315.804 21.5304 315.665 21.3917C315.527 21.2531 315.324 21.1464 315.057 21.0717C314.801 20.9864 314.492 20.9064 314.129 20.8317C313.745 20.7571 313.372 20.6664 313.009 20.5597C312.657 20.4424 312.337 20.2984 312.049 20.1277C311.772 19.9571 311.548 19.7384 311.377 19.4717C311.217 19.2051 311.137 18.8797 311.137 18.4957C311.137 18.0264 311.26 17.6051 311.505 17.2317C311.761 16.8584 312.124 16.5651 312.593 16.3517C313.073 16.1277 313.644 16.0157 314.305 16.0157C315.244 16.0157 315.991 16.2344 316.545 16.6717C317.111 17.0984 317.441 17.7011 317.537 18.4797H315.713C315.66 18.1811 315.511 17.9517 315.265 17.7917C315.02 17.6211 314.695 17.5357 314.289 17.5357C313.873 17.5357 313.553 17.6157 313.329 17.7757C313.116 17.9251 313.009 18.1277 313.009 18.3837C313.009 18.5437 313.073 18.6931 313.201 18.8317C313.34 18.9597 313.537 19.0717 313.793 19.1677C314.049 19.2531 314.364 19.3384 314.737 19.4237C315.335 19.5411 315.863 19.6797 316.321 19.8397C316.78 19.9997 317.143 20.2344 317.409 20.5437C317.676 20.8531 317.809 21.2904 317.809 21.8557C317.82 22.3677 317.687 22.8211 317.409 23.2157C317.143 23.6104 316.764 23.9197 316.273 24.1437C315.783 24.3571 315.196 24.4637 314.513 24.4637ZM324.872 24.2717L321.304 19.8557L324.504 16.2077H326.792L322.808 20.6397V19.1517L327.272 24.2717H324.872ZM319.672 24.2717V12.7517H321.592V24.2717H319.672ZM332.533 24.2717V13.0717H339.685V14.6237H334.453V17.9037H338.725V19.4237H334.453V24.2717H332.533ZM343.298 24.4637C342.636 24.4637 342.087 24.3517 341.65 24.1277C341.212 23.9037 340.887 23.6051 340.674 23.2317C340.46 22.8584 340.354 22.4531 340.354 22.0157C340.354 21.5037 340.482 21.0611 340.738 20.6877C341.004 20.3144 341.394 20.0264 341.906 19.8237C342.418 19.6104 343.047 19.5037 343.794 19.5037H345.826C345.826 19.0771 345.767 18.7251 345.65 18.4477C345.532 18.1597 345.351 17.9464 345.106 17.8077C344.86 17.6691 344.546 17.5997 344.162 17.5997C343.724 17.5997 343.351 17.7011 343.042 17.9037C342.732 18.0957 342.54 18.3944 342.466 18.7997H340.578C340.642 18.2237 340.834 17.7331 341.154 17.3277C341.474 16.9117 341.895 16.5917 342.418 16.3677C342.951 16.1331 343.532 16.0157 344.162 16.0157C344.919 16.0157 345.564 16.1491 346.098 16.4157C346.631 16.6717 347.036 17.0451 347.314 17.5357C347.602 18.0157 347.746 18.5971 347.746 19.2797V24.2717H346.114L345.922 22.9757C345.815 23.1891 345.676 23.3864 345.506 23.5677C345.346 23.7491 345.159 23.9091 344.946 24.0477C344.732 24.1757 344.487 24.2771 344.21 24.3517C343.943 24.4264 343.639 24.4637 343.298 24.4637ZM343.73 22.9437C344.039 22.9437 344.311 22.8904 344.546 22.7837C344.791 22.6664 344.999 22.5064 345.17 22.3037C345.351 22.0904 345.49 21.8557 345.586 21.5997C345.682 21.3437 345.746 21.0717 345.778 20.7837V20.7517H344.002C343.628 20.7517 343.319 20.7997 343.074 20.8957C342.828 20.9811 342.652 21.1091 342.546 21.2797C342.439 21.4504 342.386 21.6477 342.386 21.8717C342.386 22.0957 342.439 22.2877 342.546 22.4477C342.652 22.6077 342.807 22.7304 343.01 22.8157C343.212 22.9011 343.452 22.9437 343.73 22.9437ZM353.621 24.4637C352.832 24.4637 352.123 24.2877 351.493 23.9357C350.875 23.5731 350.389 23.0771 350.037 22.4477C349.696 21.8077 349.525 21.0824 349.525 20.2717C349.525 19.4291 349.696 18.6931 350.037 18.0637C350.389 17.4237 350.875 16.9224 351.493 16.5597C352.123 16.1971 352.837 16.0157 353.637 16.0157C354.64 16.0157 355.483 16.2824 356.165 16.8157C356.848 17.3384 357.285 18.0584 357.477 18.9757H355.461C355.355 18.5704 355.131 18.2504 354.789 18.0157C354.459 17.7811 354.064 17.6637 353.605 17.6637C353.211 17.6637 352.848 17.7651 352.517 17.9677C352.197 18.1704 351.941 18.4637 351.749 18.8477C351.568 19.2317 351.477 19.6957 351.477 20.2397C351.477 20.6557 351.531 21.0237 351.637 21.3437C351.744 21.6637 351.893 21.9357 352.085 22.1597C352.288 22.3731 352.517 22.5384 352.773 22.6557C353.029 22.7731 353.307 22.8317 353.605 22.8317C353.915 22.8317 354.192 22.7837 354.437 22.6877C354.693 22.5811 354.907 22.4264 355.077 22.2237C355.259 22.0211 355.387 21.7811 355.461 21.5037H357.477C357.285 22.3997 356.848 23.1197 356.165 23.6637C355.483 24.1971 354.635 24.4637 353.621 24.4637ZM362.707 24.2717C362.163 24.2717 361.689 24.1864 361.283 24.0157C360.889 23.8451 360.579 23.5624 360.355 23.1677C360.131 22.7731 360.019 22.2397 360.019 21.5677V17.8237H358.643V16.2077H360.019L360.243 14.0797H361.939V16.2077H364.131V17.8237H361.939V21.5677C361.939 21.9731 362.025 22.2557 362.195 22.4157C362.377 22.5651 362.675 22.6397 363.091 22.6397H364.083V24.2717H362.707ZM369.495 24.4637C368.727 24.4637 368.033 24.2877 367.415 23.9357C366.807 23.5731 366.327 23.0771 365.975 22.4477C365.633 21.8077 365.463 21.0771 365.463 20.2557C365.463 19.4131 365.639 18.6771 365.991 18.0477C366.343 17.4077 366.823 16.9117 367.431 16.5597C368.049 16.1971 368.743 16.0157 369.511 16.0157C370.279 16.0157 370.967 16.1971 371.575 16.5597C372.193 16.9117 372.673 17.4024 373.015 18.0317C373.367 18.6611 373.543 19.3971 373.543 20.2397C373.543 21.0824 373.367 21.8184 373.015 22.4477C372.663 23.0771 372.177 23.5731 371.559 23.9357C370.951 24.2877 370.263 24.4637 369.495 24.4637ZM369.495 22.8157C369.879 22.8157 370.225 22.7197 370.535 22.5277C370.855 22.3357 371.111 22.0477 371.303 21.6637C371.495 21.2797 371.591 20.8051 371.591 20.2397C371.591 19.6744 371.495 19.2051 371.303 18.8317C371.121 18.4477 370.871 18.1597 370.551 17.9677C370.241 17.7757 369.895 17.6797 369.511 17.6797C369.137 17.6797 368.791 17.7757 368.471 17.9677C368.151 18.1597 367.895 18.4477 367.703 18.8317C367.511 19.2051 367.415 19.6744 367.415 20.2397C367.415 20.8051 367.511 21.2797 367.703 21.6637C367.895 22.0477 368.145 22.3357 368.455 22.5277C368.775 22.7197 369.121 22.8157 369.495 22.8157ZM375.422 24.2717V16.2077H377.134L377.31 17.7117C377.502 17.3597 377.742 17.0611 378.03 16.8157C378.318 16.5597 378.654 16.3624 379.038 16.2237C379.433 16.0851 379.865 16.0157 380.334 16.0157V18.0477H379.662C379.342 18.0477 379.038 18.0904 378.75 18.1757C378.462 18.2504 378.212 18.3784 377.998 18.5597C377.796 18.7304 377.636 18.9704 377.518 19.2797C377.401 19.5784 377.342 19.9571 377.342 20.4157V24.2717H375.422Z" fill="#373736"/>
<mask id="mask1_1380_9629" style="mask-type:alpha" maskUnits="userSpaceOnUse" x="251" y="38" width="175" height="86">
<rect x="251.752" y="38.2935" width="173.29" height="84.8013" fill="#D9D9D9"/>
</mask>
<g mask="url(#mask1_1380_9629)">
<path d="M425.041 123.095C425.041 100.604 415.912 79.0345 399.663 63.1312C383.414 47.2279 361.376 38.2935 338.396 38.2935C315.417 38.2935 293.378 47.2279 277.129 63.1312C260.88 79.0345 251.751 100.604 251.751 123.095L269.08 123.095C269.08 105.102 276.383 87.8466 289.382 75.1239C302.382 62.4012 320.012 55.2537 338.396 55.2537C356.78 55.2537 374.411 62.4012 387.41 75.1239C400.409 87.8466 407.712 105.102 407.712 123.095H425.041Z" fill="#EBEBEB"/>
<path d="M382.767 50.2568C369.618 42.5842 354.628 38.4581 339.32 38.2983C324.013 38.1385 308.935 41.9508 295.623 49.3471C282.31 56.7435 271.237 67.4598 263.531 80.4055C255.824 93.3511 251.76 108.064 251.751 123.046L269.08 123.056C269.087 111.07 272.339 99.2998 278.504 88.9433C284.669 78.5868 293.527 70.0137 304.177 64.0967C314.828 58.1796 326.889 55.1298 339.135 55.2576C351.381 55.3854 363.374 58.6863 373.893 64.8244L382.767 50.2568Z" fill="#FF3E28"/>
</g>
<path d="M323.297 106.314L328.472 94.569H321.778V91.9408H331.634V94.0968L326.48 106.314H323.297ZM339.115 106.314V103.85H332.134V101.386L338.725 91.9408H342.195V101.181H343.982V103.85H342.195V106.314H339.115ZM335.399 101.181H339.321V95.3287L335.399 101.181ZM351.067 106.56C350.041 106.56 349.171 106.362 348.46 105.965C347.748 105.568 347.2 105.048 346.817 104.404C346.434 103.761 346.208 103.077 346.139 102.351H348.993C349.117 102.899 349.356 103.323 349.712 103.624C350.068 103.912 350.533 104.055 351.108 104.055C351.656 104.055 352.121 103.891 352.505 103.563C352.902 103.234 353.21 102.748 353.429 102.105C353.648 101.461 353.771 100.667 353.798 99.7228C353.798 99.6818 353.798 99.6475 353.798 99.6202C353.798 99.5791 353.798 99.538 353.798 99.497C353.607 99.8392 353.326 100.147 352.956 100.421C352.6 100.681 352.203 100.886 351.765 101.037C351.327 101.188 350.876 101.263 350.41 101.263C349.63 101.263 348.898 101.078 348.213 100.708C347.529 100.325 346.974 99.7844 346.55 99.0863C346.139 98.3745 345.934 97.5395 345.934 96.5813C345.934 95.6778 346.146 94.8565 346.571 94.1173C347.009 93.3781 347.604 92.7895 348.357 92.3514C349.123 91.9134 349.993 91.6944 350.965 91.6944C352.073 91.6944 353.004 91.8997 353.757 92.3104C354.51 92.7073 355.105 93.2412 355.543 93.912C355.995 94.5827 356.324 95.3356 356.529 96.1706C356.734 96.9919 356.837 97.8338 356.837 98.6962C356.837 100.298 356.611 101.687 356.159 102.864C355.708 104.042 355.051 104.952 354.188 105.595C353.326 106.239 352.286 106.56 351.067 106.56ZM351.17 98.6756C351.608 98.6756 351.998 98.5867 352.34 98.4087C352.696 98.2308 352.97 97.9775 353.162 97.649C353.367 97.3205 353.47 96.944 353.47 96.5197C353.47 96.0816 353.367 95.6983 353.162 95.3698C352.97 95.0413 352.696 94.788 352.34 94.6101C351.984 94.4184 351.581 94.3226 351.129 94.3226C350.691 94.3226 350.301 94.4184 349.958 94.6101C349.616 94.788 349.342 95.0413 349.137 95.3698C348.946 95.6846 348.85 96.0542 348.85 96.4786C348.85 96.9166 348.946 97.2999 349.137 97.6285C349.342 97.957 349.616 98.2171 349.958 98.4087C350.314 98.5867 350.718 98.6756 351.17 98.6756Z" fill="#0A0A0A"/>
<path d="M296.189 123.314V115.314H298.893C299.518 115.314 300.031 115.421 300.432 115.634C300.833 115.845 301.13 116.136 301.322 116.505C301.515 116.875 301.611 117.296 301.611 117.767C301.611 118.238 301.515 118.656 301.322 119.021C301.13 119.386 300.834 119.672 300.436 119.88C300.037 120.086 299.528 120.189 298.908 120.189H296.721V119.314H298.877C299.304 119.314 299.648 119.251 299.908 119.126C300.171 119.001 300.361 118.824 300.479 118.595C300.598 118.363 300.658 118.087 300.658 117.767C300.658 117.447 300.598 117.167 300.479 116.927C300.359 116.688 300.167 116.503 299.904 116.373C299.641 116.24 299.294 116.173 298.861 116.173H297.158V123.314H296.189ZM299.955 119.72L301.924 123.314H300.799L298.861 119.72H299.955ZM303.101 123.314V117.314H304.022V123.314H303.101ZM303.569 116.314C303.39 116.314 303.235 116.253 303.104 116.13C302.977 116.008 302.913 115.861 302.913 115.689C302.913 115.517 302.977 115.37 303.104 115.248C303.235 115.125 303.39 115.064 303.569 115.064C303.749 115.064 303.903 115.125 304.03 115.248C304.16 115.37 304.226 115.517 304.226 115.689C304.226 115.861 304.16 116.008 304.03 116.13C303.903 116.253 303.749 116.314 303.569 116.314ZM309.961 118.658L309.133 118.892C309.081 118.754 309.004 118.62 308.902 118.49C308.803 118.357 308.668 118.248 308.496 118.162C308.324 118.076 308.104 118.033 307.836 118.033C307.469 118.033 307.163 118.117 306.918 118.287C306.676 118.453 306.555 118.666 306.555 118.923C306.555 119.153 306.638 119.333 306.805 119.466C306.971 119.599 307.232 119.71 307.586 119.798L308.477 120.017C309.013 120.147 309.413 120.347 309.676 120.615C309.939 120.88 310.07 121.223 310.07 121.642C310.07 121.986 309.971 122.293 309.773 122.564C309.578 122.835 309.305 123.048 308.953 123.205C308.602 123.361 308.193 123.439 307.727 123.439C307.115 123.439 306.608 123.306 306.207 123.041C305.806 122.775 305.552 122.387 305.445 121.876L306.32 121.658C306.404 121.981 306.561 122.223 306.793 122.384C307.027 122.546 307.333 122.626 307.711 122.626C308.141 122.626 308.482 122.535 308.734 122.353C308.99 122.168 309.117 121.947 309.117 121.689C309.117 121.481 309.044 121.306 308.898 121.166C308.753 121.022 308.529 120.916 308.227 120.845L307.227 120.611C306.677 120.481 306.273 120.279 306.016 120.005C305.76 119.729 305.633 119.384 305.633 118.97C305.633 118.632 305.728 118.332 305.918 118.072C306.111 117.811 306.372 117.607 306.703 117.458C307.036 117.31 307.414 117.236 307.836 117.236C308.43 117.236 308.896 117.366 309.234 117.626C309.576 117.887 309.818 118.231 309.961 118.658ZM312.317 121.126L312.302 119.986H312.489L315.114 117.314H316.255L313.458 120.142H313.38L312.317 121.126ZM311.458 123.314V115.314H312.38V123.314H311.458ZM315.271 123.314L312.927 120.345L313.583 119.705L316.442 123.314H315.271ZM320.66 123.314V115.314H325.457V116.173H321.629V118.876H325.098V119.736H321.629V123.314H320.66ZM328.757 123.455C328.377 123.455 328.032 123.383 327.722 123.24C327.412 123.094 327.166 122.884 326.983 122.611C326.801 122.335 326.71 122.001 326.71 121.611C326.71 121.267 326.778 120.988 326.913 120.775C327.049 120.559 327.229 120.389 327.456 120.267C327.683 120.145 327.933 120.054 328.206 119.994C328.482 119.931 328.759 119.882 329.038 119.845C329.403 119.798 329.698 119.763 329.925 119.74C330.154 119.714 330.321 119.671 330.425 119.611C330.532 119.551 330.585 119.447 330.585 119.298V119.267C330.585 118.882 330.479 118.582 330.269 118.369C330.06 118.155 329.744 118.048 329.319 118.048C328.879 118.048 328.534 118.145 328.284 118.337C328.034 118.53 327.858 118.736 327.757 118.955L326.882 118.642C327.038 118.278 327.246 117.994 327.507 117.791C327.77 117.585 328.056 117.442 328.366 117.361C328.679 117.278 328.986 117.236 329.288 117.236C329.481 117.236 329.702 117.259 329.952 117.306C330.205 117.35 330.448 117.443 330.683 117.583C330.92 117.724 331.116 117.936 331.272 118.22C331.429 118.504 331.507 118.884 331.507 119.361V123.314H330.585V122.501H330.538C330.476 122.632 330.371 122.771 330.226 122.919C330.08 123.068 329.886 123.194 329.644 123.298C329.401 123.403 329.106 123.455 328.757 123.455ZM328.897 122.626C329.262 122.626 329.569 122.555 329.819 122.412C330.072 122.268 330.262 122.083 330.39 121.857C330.52 121.63 330.585 121.392 330.585 121.142V120.298C330.546 120.345 330.46 120.388 330.327 120.427C330.197 120.464 330.046 120.496 329.874 120.525C329.705 120.551 329.539 120.574 329.378 120.595C329.219 120.613 329.09 120.629 328.991 120.642C328.752 120.673 328.528 120.724 328.319 120.794C328.114 120.862 327.947 120.965 327.819 121.103C327.694 121.238 327.632 121.423 327.632 121.658C327.632 121.978 327.75 122.22 327.987 122.384C328.227 122.546 328.53 122.626 328.897 122.626ZM335.627 123.439C335.064 123.439 334.58 123.306 334.174 123.041C333.768 122.775 333.455 122.409 333.236 121.943C333.018 121.477 332.908 120.944 332.908 120.345C332.908 119.736 333.02 119.198 333.244 118.732C333.471 118.263 333.786 117.897 334.189 117.634C334.596 117.369 335.07 117.236 335.611 117.236C336.033 117.236 336.413 117.314 336.752 117.47C337.09 117.626 337.368 117.845 337.584 118.126C337.8 118.408 337.934 118.736 337.986 119.111H337.064C336.994 118.837 336.838 118.595 336.596 118.384C336.356 118.171 336.033 118.064 335.627 118.064C335.268 118.064 334.952 118.158 334.682 118.345C334.413 118.53 334.204 118.792 334.053 119.13C333.904 119.466 333.83 119.861 333.83 120.314C333.83 120.778 333.903 121.181 334.049 121.525C334.197 121.869 334.406 122.136 334.674 122.326C334.945 122.516 335.262 122.611 335.627 122.611C335.867 122.611 336.084 122.569 336.279 122.486C336.475 122.403 336.64 122.283 336.775 122.126C336.911 121.97 337.007 121.783 337.064 121.564H337.986C337.934 121.918 337.805 122.237 337.6 122.521C337.396 122.802 337.127 123.026 336.791 123.193C336.458 123.357 336.07 123.439 335.627 123.439ZM341.943 117.314V118.095H338.834V117.314H341.943ZM339.74 115.876H340.662V121.595C340.662 121.856 340.7 122.051 340.775 122.181C340.854 122.309 340.952 122.395 341.072 122.439C341.195 122.481 341.324 122.501 341.459 122.501C341.561 122.501 341.644 122.496 341.709 122.486C341.774 122.473 341.826 122.462 341.865 122.455L342.053 123.283C341.99 123.306 341.903 123.33 341.791 123.353C341.679 123.379 341.537 123.392 341.365 123.392C341.105 123.392 340.85 123.336 340.6 123.224C340.352 123.112 340.146 122.942 339.982 122.712C339.821 122.483 339.74 122.194 339.74 121.845V115.876ZM345.703 123.439C345.161 123.439 344.686 123.31 344.277 123.052C343.871 122.794 343.553 122.434 343.324 121.97C343.098 121.507 342.984 120.965 342.984 120.345C342.984 119.72 343.098 119.175 343.324 118.708C343.553 118.242 343.871 117.88 344.277 117.623C344.686 117.365 345.161 117.236 345.703 117.236C346.245 117.236 346.719 117.365 347.125 117.623C347.534 117.88 347.852 118.242 348.078 118.708C348.307 119.175 348.422 119.72 348.422 120.345C348.422 120.965 348.307 121.507 348.078 121.97C347.852 122.434 347.534 122.794 347.125 123.052C346.719 123.31 346.245 123.439 345.703 123.439ZM345.703 122.611C346.115 122.611 346.453 122.505 346.719 122.294C346.984 122.083 347.181 121.806 347.309 121.462C347.436 121.119 347.5 120.746 347.5 120.345C347.5 119.944 347.436 119.57 347.309 119.224C347.181 118.878 346.984 118.598 346.719 118.384C346.453 118.171 346.115 118.064 345.703 118.064C345.292 118.064 344.953 118.171 344.688 118.384C344.422 118.598 344.225 118.878 344.098 119.224C343.97 119.57 343.906 119.944 343.906 120.345C343.906 120.746 343.97 121.119 344.098 121.462C344.225 121.806 344.422 122.083 344.688 122.294C344.953 122.505 345.292 122.611 345.703 122.611ZM349.829 123.314V117.314H350.72V118.22H350.782C350.892 117.923 351.09 117.682 351.376 117.498C351.662 117.313 351.985 117.22 352.345 117.22C352.412 117.22 352.497 117.222 352.599 117.224C352.7 117.227 352.777 117.231 352.829 117.236V118.173C352.798 118.166 352.726 118.154 352.614 118.138C352.505 118.12 352.389 118.111 352.267 118.111C351.975 118.111 351.715 118.172 351.485 118.294C351.259 118.414 351.079 118.581 350.946 118.794C350.816 119.005 350.751 119.246 350.751 119.517V123.314H349.829ZM357.688 122.291C357.495 122.291 357.329 122.222 357.191 122.083C357.053 121.945 356.984 121.78 356.984 121.587C356.984 121.395 357.053 121.229 357.191 121.091C357.329 120.953 357.495 120.884 357.688 120.884C357.88 120.884 358.046 120.953 358.184 121.091C358.322 121.229 358.391 121.395 358.391 121.587C358.391 121.715 358.358 121.832 358.293 121.939C358.23 122.046 358.146 122.132 358.039 122.197C357.935 122.259 357.818 122.291 357.688 122.291ZM357.688 118.244C357.495 118.244 357.329 118.175 357.191 118.037C357.053 117.899 356.984 117.733 356.984 117.541C356.984 117.348 357.053 117.182 357.191 117.044C357.329 116.906 357.495 116.837 357.688 116.837C357.88 116.837 358.046 116.906 358.184 117.044C358.322 117.182 358.391 117.348 358.391 117.541C358.391 117.668 358.358 117.785 358.293 117.892C358.23 117.999 358.146 118.085 358.039 118.15C357.935 118.212 357.818 118.244 357.688 118.244Z" fill="#615E83"/>
<path d="M363.264 123.314V115.314H364.232V122.455H367.951V123.314H363.264ZM371.764 123.439C371.222 123.439 370.747 123.31 370.338 123.052C369.932 122.794 369.614 122.434 369.385 121.97C369.158 121.507 369.045 120.965 369.045 120.345C369.045 119.72 369.158 119.175 369.385 118.708C369.614 118.242 369.932 117.88 370.338 117.623C370.747 117.365 371.222 117.236 371.764 117.236C372.305 117.236 372.779 117.365 373.186 117.623C373.594 117.88 373.912 118.242 374.139 118.708C374.368 119.175 374.482 119.72 374.482 120.345C374.482 120.965 374.368 121.507 374.139 121.97C373.912 122.434 373.594 122.794 373.186 123.052C372.779 123.31 372.305 123.439 371.764 123.439ZM371.764 122.611C372.175 122.611 372.514 122.505 372.779 122.294C373.045 122.083 373.242 121.806 373.369 121.462C373.497 121.119 373.561 120.746 373.561 120.345C373.561 119.944 373.497 119.57 373.369 119.224C373.242 118.878 373.045 118.598 372.779 118.384C372.514 118.171 372.175 118.064 371.764 118.064C371.352 118.064 371.014 118.171 370.748 118.384C370.482 118.598 370.286 118.878 370.158 119.224C370.031 119.57 369.967 119.944 369.967 120.345C369.967 120.746 370.031 121.119 370.158 121.462C370.286 121.806 370.482 122.083 370.748 122.294C371.014 122.505 371.352 122.611 371.764 122.611ZM377.045 123.314L375.217 117.314H376.186L377.482 121.908H377.545L378.826 117.314H379.811L381.076 121.892H381.139L382.436 117.314H383.404L381.576 123.314H380.67L379.357 118.705H379.264L377.951 123.314H377.045Z" fill="#FF0000"/>
<rect x="282.397" y="132.617" width="112" height="26" rx="13" fill="#3FC870"/>
<rect x="282.397" y="132.617" width="112" height="26" rx="13" stroke="#F9F9F9"/>
<path d="M302.61 149.749C301.84 149.749 301.176 149.584 300.619 149.254C300.069 148.916 299.644 148.451 299.343 147.857C299.05 147.255 298.903 146.562 298.903 145.778C298.903 144.993 299.05 144.3 299.343 143.699C299.644 143.097 300.069 142.628 300.619 142.291C301.176 141.953 301.84 141.785 302.61 141.785C303.541 141.785 304.304 142.016 304.898 142.478C305.492 142.94 305.862 143.592 306.009 144.436H304.392C304.297 144.025 304.095 143.706 303.787 143.479C303.486 143.244 303.09 143.127 302.599 143.127C302.144 143.127 301.752 143.237 301.422 143.457C301.099 143.669 300.85 143.974 300.674 144.37C300.498 144.758 300.41 145.228 300.41 145.778C300.41 146.32 300.498 146.79 300.674 147.186C300.85 147.582 301.099 147.886 301.422 148.099C301.752 148.311 302.144 148.418 302.599 148.418C303.09 148.418 303.486 148.311 303.787 148.099C304.088 147.879 304.286 147.574 304.381 147.186H306.009C305.862 147.985 305.492 148.612 304.898 149.067C304.304 149.521 303.541 149.749 302.61 149.749ZM307.277 149.617V141.917H310.148C310.772 141.917 311.285 142.023 311.688 142.236C312.092 142.448 312.392 142.734 312.59 143.094C312.788 143.446 312.887 143.838 312.887 144.271C312.887 144.681 312.792 145.066 312.601 145.426C312.411 145.778 312.11 146.064 311.699 146.284C311.296 146.496 310.775 146.603 310.137 146.603H308.762V149.617H307.277ZM311.27 149.617L309.686 146.229H311.292L312.964 149.617H311.27ZM308.762 145.525H310.06C310.508 145.525 310.838 145.415 311.05 145.195C311.263 144.975 311.369 144.685 311.369 144.326C311.369 143.966 311.263 143.684 311.05 143.479C310.845 143.266 310.515 143.16 310.06 143.16H308.762V145.525ZM316.159 149.617L313.354 141.917H314.938L317.072 148.099L319.217 141.917H320.79L317.985 149.617H316.159Z" fill="white"/>
<g clip-path="url(#clip0_1380_9629)">
<path d="M333.166 141.236L331.965 143.671L329.278 144.063C328.796 144.133 328.603 144.727 328.953 145.067L330.896 146.961L330.437 149.637C330.354 150.121 330.863 150.483 331.29 150.257L333.694 148.993L336.097 150.257C336.524 150.481 337.034 150.121 336.951 149.637L336.491 146.961L338.435 145.067C338.784 144.727 338.591 144.133 338.109 144.063L335.422 143.671L334.222 141.236C334.006 140.802 333.383 140.796 333.166 141.236Z" fill="white"/>
</g>
<g clip-path="url(#clip1_1380_9629)">
<path d="M346.301 141.236L345.101 143.671L342.414 144.063C341.932 144.133 341.739 144.727 342.088 145.067L344.032 146.961L343.572 149.637C343.489 150.121 343.999 150.483 344.426 150.257L346.829 148.993L349.233 150.257C349.66 150.481 350.169 150.121 350.086 149.637L349.627 146.961L351.57 145.067C351.92 144.727 351.727 144.133 351.245 144.063L348.558 143.671L347.357 141.236C347.142 140.802 346.518 140.796 346.301 141.236Z" fill="white"/>
</g>
<g clip-path="url(#clip2_1380_9629)">
<path d="M359.437 141.236L358.236 143.671L355.549 144.063C355.067 144.133 354.874 144.727 355.224 145.067L357.168 146.961L356.708 149.637C356.625 150.121 357.135 150.483 357.561 150.257L359.965 148.993L362.369 150.257C362.795 150.481 363.305 150.121 363.222 149.637L362.762 146.961L364.706 145.067C365.056 144.727 364.862 144.133 364.381 144.063L361.694 143.671L360.493 141.236C360.278 140.802 359.654 140.796 359.437 141.236Z" fill="white"/>
</g>
<g clip-path="url(#clip3_1380_9629)">
<path d="M377.855 143.947L374.962 143.526L373.669 140.909C373.553 140.676 373.326 140.557 373.099 140.557C372.874 140.557 372.649 140.674 372.532 140.909L371.239 143.526L368.346 143.946C367.828 144.022 367.62 144.66 367.996 145.025L370.089 147.061L369.593 149.936C369.523 150.347 369.851 150.676 370.218 150.676C370.315 150.676 370.416 150.653 370.512 150.602L373.1 149.245L375.688 150.603C375.784 150.653 375.884 150.676 375.981 150.676C376.348 150.676 376.677 150.348 376.607 149.937L376.112 147.061L378.205 145.026C378.581 144.66 378.373 144.022 377.855 143.947ZM375.449 146.382L375.09 146.73L375.175 147.222L375.561 149.464L373.542 148.405L373.1 148.173L373.101 141.904L374.109 143.945L374.33 144.393L374.824 144.465L377.082 144.793L375.449 146.382Z" fill="white"/>
</g>
<defs>
<clipPath id="clip0_1380_9629">
<rect width="10.5932" height="10.5932" fill="white" transform="translate(328.397 140.32)"/>
</clipPath>
<clipPath id="clip1_1380_9629">
<rect width="10.5932" height="10.5932" fill="white" transform="translate(341.533 140.32)"/>
</clipPath>
<clipPath id="clip2_1380_9629">
<rect width="10.5932" height="10.5932" fill="white" transform="translate(354.668 140.32)"/>
</clipPath>
<clipPath id="clip3_1380_9629">
<rect width="10.5932" height="10.5932" fill="white" transform="translate(367.804 140.32)"/>
</clipPath>
</defs>
</svg>
