<svg width="176" height="60" viewBox="0 0 176 60" fill="none" xmlns="http://www.w3.org/2000/svg">
<rect x="5" y="5" width="50" height="50" rx="4.41919" fill="#F7F7F7"/>
<path d="M21.0459 18.9515L23.7127 16.2847H39.7139C40.9764 16.2847 41.9998 17.3081 41.9998 18.5705V41.4293C41.9998 42.6918 40.9764 43.7152 39.7139 43.7152H20.2839C19.0215 43.7152 17.998 42.6918 17.998 41.4293V21.6184L21.0459 18.9515Z" fill="#E3E7ED"/>
<path d="M21.0459 18.9515L23.7127 16.2847V19.7135C23.7127 20.7655 22.8599 21.6184 21.8078 21.6184H17.998L21.0459 18.9515Z" fill="#D2DBEA"/>
<rect x="15.7129" y="31.1428" width="28.5735" height="8.00058" rx="1.52392" fill="#F14F4A"/>
<path d="M25.3826 37V33.1209H26.8373C27.1353 33.1209 27.3853 33.1765 27.5873 33.2876C27.7906 33.3987 27.944 33.5515 28.0476 33.746C28.1524 33.9392 28.2048 34.1589 28.2048 34.4051C28.2048 34.6539 28.1524 34.8748 28.0476 35.068C27.9428 35.2612 27.7881 35.4134 27.5835 35.5245C27.379 35.6344 27.127 35.6893 26.8278 35.6893H25.8637V35.1116H26.7331C26.9073 35.1116 27.05 35.0813 27.1611 35.0207C27.2723 34.9601 27.3543 34.8767 27.4074 34.7707C27.4617 34.6646 27.4888 34.5428 27.4888 34.4051C27.4888 34.2675 27.4617 34.1463 27.4074 34.0415C27.3543 33.9366 27.2716 33.8552 27.1592 33.7971C27.0481 33.7378 26.9048 33.7081 26.7293 33.7081H26.0853V37H25.3826ZM30.1296 37H28.8151V33.1209H30.1561C30.5413 33.1209 30.8721 33.1986 31.1486 33.3539C31.4264 33.508 31.6398 33.7296 31.7888 34.0187C31.9378 34.3079 32.0123 34.6539 32.0123 35.0567C32.0123 35.4607 31.9372 35.808 31.7869 36.0984C31.6379 36.3888 31.4227 36.6117 31.1411 36.767C30.8607 36.9223 30.5236 37 30.1296 37ZM29.5178 36.392H30.0955C30.3658 36.392 30.5912 36.3428 30.7717 36.2443C30.9523 36.1445 31.088 35.9961 31.179 35.7992C31.2699 35.6009 31.3153 35.3534 31.3153 35.0567C31.3153 34.7599 31.2699 34.5137 31.179 34.318C31.088 34.121 30.9536 33.9739 30.7755 33.8767C30.5987 33.7782 30.379 33.7289 30.1164 33.7289H29.5178V36.392ZM32.68 37V33.1209H35.165V33.71H33.3827V34.7631H34.9946V35.3522H33.3827V37H32.68Z" fill="white"/>
<path d="M23.7129 25.4282H30.1895H36.6662" stroke="#C0CADA" stroke-width="1.14294" stroke-linecap="round"/>
<path d="M23.7129 28.095H30.1895H36.6662" stroke="#C0CADA" stroke-width="1.14294" stroke-linecap="round"/>
<rect x="63" y="5" width="50" height="50" rx="4.41919" fill="#F7F7F7"/>
<path d="M79.0459 18.9515L81.7127 16.2847H97.7139C98.9764 16.2847 99.9998 17.3081 99.9998 18.5705V41.4293C99.9998 42.6918 98.9764 43.7152 97.7139 43.7152H78.2839C77.0215 43.7152 75.998 42.6918 75.998 41.4293V21.6184L79.0459 18.9515Z" fill="#E3E7ED"/>
<path d="M79.0459 18.9515L81.7127 16.2847V19.7135C81.7127 20.7655 80.8599 21.6184 79.8078 21.6184H75.998L79.0459 18.9515Z" fill="#D2DBEA"/>
<rect x="73.7129" y="31.1428" width="28.5735" height="8.00058" rx="1.52392" fill="#3FC870"/>
<path d="M84.0853 33.1209V37H83.3826V33.1209H84.0853ZM84.8463 33.1209H85.7062L86.8578 35.9317H86.9032L88.0548 33.1209H88.9147V37H88.2404V34.335H88.2044L87.1324 36.9886H86.6286L85.5565 34.3294H85.5205V37H84.8463V33.1209ZM92.2786 34.3597C92.247 34.2574 92.2035 34.1658 92.1479 34.085C92.0936 34.0029 92.028 33.9329 91.9509 33.8748C91.8752 33.8167 91.788 33.7731 91.6895 33.7441C91.5911 33.7138 91.4837 33.6986 91.3676 33.6986C91.1592 33.6986 90.9736 33.751 90.8107 33.8558C90.6478 33.9606 90.5196 34.1147 90.4262 34.318C90.334 34.52 90.2879 34.7663 90.2879 35.0567C90.2879 35.3496 90.334 35.5978 90.4262 35.801C90.5184 36.0043 90.6465 36.159 90.8107 36.2651C90.9749 36.3699 91.1655 36.4223 91.3827 36.4223C91.5797 36.4223 91.7502 36.3844 91.8941 36.3087C92.0393 36.2329 92.1511 36.1256 92.2294 35.9867C92.3076 35.8465 92.3468 35.6824 92.3468 35.4942L92.5059 35.5188H91.4528V34.9696H93.0268V35.4355C93.0268 35.7676 92.9561 36.0549 92.8146 36.2973C92.6732 36.5397 92.4787 36.7266 92.2313 36.8579C91.9838 36.988 91.6997 37.053 91.3789 37.053C91.0216 37.053 90.7078 36.9729 90.4376 36.8125C90.1686 36.6509 89.9584 36.4217 89.8068 36.1249C89.6566 35.8269 89.5814 35.4734 89.5814 35.0643C89.5814 34.7511 89.6256 34.4714 89.714 34.2252C89.8037 33.9789 89.9287 33.77 90.0891 33.5982C90.2494 33.4252 90.4376 33.2939 90.6535 33.2043C90.8694 33.1134 91.1043 33.0679 91.3581 33.0679C91.5727 33.0679 91.7729 33.0995 91.9585 33.1626C92.1441 33.2245 92.3089 33.3129 92.4529 33.4278C92.5981 33.5427 92.7174 33.6791 92.8108 33.8369C92.9043 33.9947 92.9655 34.169 92.9946 34.3597H92.2786Z" fill="white"/>
<path d="M81.7129 25.4282H88.1895H94.6662" stroke="#C0CADA" stroke-width="1.14294" stroke-linecap="round"/>
<path d="M81.7129 28.095H88.1895H94.6662" stroke="#C0CADA" stroke-width="1.14294" stroke-linecap="round"/>
<rect x="121" y="5" width="50" height="50" rx="4.41919" fill="#F7F7F7"/>
<path d="M137.046 18.9515L139.713 16.2847H155.714C156.976 16.2847 158 17.3081 158 18.5705V41.4293C158 42.6918 156.976 43.7152 155.714 43.7152H136.284C135.021 43.7152 133.998 42.6918 133.998 41.4293V21.6184L137.046 18.9515Z" fill="#E3E7ED"/>
<path d="M137.046 18.9515L139.713 16.2847V19.7135C139.713 20.7655 138.86 21.6184 137.808 21.6184H133.998L137.046 18.9515Z" fill="#D2DBEA"/>
<rect x="131.713" y="31.1428" width="28.5735" height="8.00058" rx="1.52392" fill="#2F67FF"/>
<path d="M141.697 37H140.383V33.1209H141.724C142.109 33.1209 142.44 33.1986 142.716 33.3539C142.994 33.508 143.207 33.7296 143.356 34.0187C143.505 34.3079 143.58 34.6539 143.58 35.0567C143.58 35.4607 143.505 35.808 143.354 36.0984C143.205 36.3888 142.99 36.6117 142.709 36.767C142.428 36.9223 142.091 37 141.697 37ZM141.085 36.392H141.663C141.933 36.392 142.159 36.3428 142.339 36.2443C142.52 36.1445 142.655 35.9961 142.746 35.7992C142.837 35.6009 142.883 35.3534 142.883 35.0567C142.883 34.7599 142.837 34.5137 142.746 34.318C142.655 34.121 142.521 33.9739 142.343 33.8767C142.166 33.7782 141.946 33.7289 141.684 33.7289H141.085V36.392ZM147.714 35.0605C147.714 35.4784 147.635 35.8364 147.479 36.1344C147.323 36.4311 147.111 36.6584 146.842 36.8163C146.575 36.9741 146.271 37.053 145.931 37.053C145.592 37.053 145.287 36.9741 145.018 36.8163C144.751 36.6572 144.539 36.4293 144.382 36.1325C144.227 35.8345 144.149 35.4772 144.149 35.0605C144.149 34.6425 144.227 34.2852 144.382 33.9884C144.539 33.6904 144.751 33.4625 145.018 33.3047C145.287 33.1468 145.592 33.0679 145.931 33.0679C146.271 33.0679 146.575 33.1468 146.842 33.3047C147.111 33.4625 147.323 33.6904 147.479 33.9884C147.635 34.2852 147.714 34.6425 147.714 35.0605ZM147.007 35.0605C147.007 34.7663 146.961 34.5181 146.869 34.3161C146.778 34.1128 146.652 33.9594 146.49 33.8558C146.328 33.751 146.142 33.6986 145.931 33.6986C145.72 33.6986 145.534 33.751 145.373 33.8558C145.211 33.9594 145.084 34.1128 144.992 34.3161C144.901 34.5181 144.855 34.7663 144.855 35.0605C144.855 35.3547 144.901 35.6034 144.992 35.8067C145.084 36.0088 145.211 36.1622 145.373 36.267C145.534 36.3705 145.72 36.4223 145.931 36.4223C146.142 36.4223 146.328 36.3705 146.49 36.267C146.652 36.1622 146.778 36.0088 146.869 35.8067C146.961 35.6034 147.007 35.3547 147.007 35.0605ZM151.698 34.4297H150.99C150.97 34.3136 150.932 34.2107 150.878 34.121C150.824 34.0301 150.756 33.9531 150.675 33.8899C150.595 33.8268 150.502 33.7794 150.399 33.7479C150.297 33.715 150.186 33.6986 150.067 33.6986C149.857 33.6986 149.67 33.7517 149.507 33.8577C149.344 33.9625 149.216 34.1166 149.124 34.3199C149.032 34.5219 148.986 34.7688 148.986 35.0605C148.986 35.3572 149.032 35.6072 149.124 35.8105C149.218 36.0126 149.345 36.1653 149.507 36.2689C149.67 36.3712 149.856 36.4223 150.066 36.4223C150.182 36.4223 150.29 36.4072 150.391 36.3768C150.494 36.3453 150.585 36.2992 150.666 36.2386C150.748 36.178 150.817 36.1035 150.872 36.0151C150.929 35.9267 150.968 35.8257 150.99 35.712L151.698 35.7158C151.672 35.9002 151.614 36.0732 151.526 36.2348C151.439 36.3964 151.325 36.5391 151.183 36.6629C151.042 36.7853 150.876 36.8813 150.687 36.9508C150.497 37.0189 150.287 37.053 150.056 37.053C149.715 37.053 149.411 36.9741 149.143 36.8163C148.875 36.6584 148.665 36.4305 148.511 36.1325C148.357 35.8345 148.279 35.4772 148.279 35.0605C148.279 34.6425 148.357 34.2852 148.512 33.9884C148.668 33.6904 148.879 33.4625 149.147 33.3047C149.415 33.1468 149.718 33.0679 150.056 33.0679C150.272 33.0679 150.473 33.0982 150.658 33.1588C150.844 33.2194 151.009 33.3084 151.155 33.4259C151.3 33.542 151.419 33.6847 151.513 33.8539C151.607 34.0219 151.669 34.2138 151.698 34.4297Z" fill="white"/>
<path d="M139.713 25.4282H146.19H152.666" stroke="#C0CADA" stroke-width="1.14294" stroke-linecap="round"/>
<path d="M139.713 28.095H146.19H152.666" stroke="#C0CADA" stroke-width="1.14294" stroke-linecap="round"/>
</svg>
