<svg width="190" height="40" viewBox="0 0 190 40" fill="none" xmlns="http://www.w3.org/2000/svg">
<rect width="40" height="40" rx="9.6" fill="#EDF1F8"/>
<path fill-rule="evenodd" clip-rule="evenodd" d="M17.4972 22.5049C20.1157 25.1234 22.5421 25.4101 23.2545 25.4367C24.1153 25.468 24.9938 24.7652 25.3738 24.0454C24.7677 23.3344 23.9784 22.7828 23.1142 22.1848C22.6041 22.6942 21.9755 23.6408 21.1386 23.3017C20.6625 23.1103 19.4871 22.5689 18.4601 21.5413C17.4325 20.5143 16.8918 19.3389 16.699 18.8635C16.3599 18.0252 17.3092 17.3953 17.8193 16.8852C17.2214 16.0067 16.6793 15.197 15.9697 14.6215C15.2396 15.0029 14.5327 15.8746 14.5647 16.747C14.5913 17.4593 14.878 19.8857 17.4972 22.5049ZM23.2041 26.798C22.2234 26.7619 19.4442 26.3778 16.5336 23.4679C13.6236 20.5572 13.2402 17.7787 13.2034 16.7974C13.1489 15.3019 14.2944 13.8493 15.6176 13.282C15.7769 13.2132 15.9514 13.187 16.1239 13.206C16.2965 13.2249 16.4611 13.2885 16.6017 13.3903C17.6967 14.1891 18.452 15.3992 19.101 16.3472C19.236 16.5443 19.2978 16.7824 19.2758 17.0204C19.2538 17.2583 19.1493 17.481 18.9804 17.65L18.057 18.5741C18.2715 19.0474 18.708 19.8633 19.4231 20.5783C20.1381 21.2934 20.954 21.7299 21.428 21.9444L22.3508 21.021C22.5204 20.8518 22.7441 20.7474 22.9827 20.7261C23.2214 20.7048 23.46 20.768 23.6569 20.9045C24.624 21.5747 25.7599 22.319 26.588 23.3793C26.6981 23.5209 26.7681 23.6895 26.7907 23.8674C26.8134 24.0453 26.7878 24.226 26.7167 24.3906C26.1467 25.7207 24.7043 26.8532 23.2041 26.798Z" fill="#09244B"/>
<rect x="50" width="40" height="40" rx="9.6" fill="#EDF1F8"/>
<path d="M76 14C76.3784 13.9999 76.7429 14.1428 77.0204 14.4001C77.2979 14.6574 77.4679 15.0101 77.4963 15.3875L77.5 15.5V24.5C77.5001 24.8784 77.3572 25.2429 77.0999 25.5204C76.8426 25.7979 76.4899 25.9679 76.1125 25.9962L76 26H64C63.6216 26.0001 63.2571 25.8572 62.9796 25.5999C62.7021 25.3426 62.5321 24.9899 62.5038 24.6125L62.5 24.5V15.5C62.4999 15.1216 62.6428 14.7571 62.9001 14.4796C63.1574 14.2021 63.5101 14.0321 63.8875 14.0038L64 14H76ZM76 16.5605L70.795 21.7655C70.5841 21.9762 70.2981 22.0945 70 22.0945C69.7019 22.0945 69.4159 21.9762 69.205 21.7655L64 16.5605V24.5H76V16.5605ZM74.9395 15.5H65.0605L70 20.4395L74.9395 15.5Z" fill="#09244B"/>
<rect x="100" width="40" height="40" rx="9.6" fill="#EDF1F8"/>
<path d="M127.319 19.0034C127.212 18.9025 127.071 18.8462 126.924 18.846H122.885L122.817 18.85C122.671 18.8674 122.537 18.9399 122.443 19.0527C122.349 19.1654 122.301 19.31 122.31 19.4568C122.318 19.6036 122.382 19.7416 122.489 19.8425C122.596 19.9435 122.738 19.9998 122.885 19.9999H126.924L126.991 19.9959C127.137 19.9785 127.271 19.9061 127.365 19.7933C127.46 19.6805 127.508 19.536 127.499 19.3892C127.49 19.2424 127.426 19.1044 127.319 19.0034Z" fill="#09244B"/>
<path d="M126.165 21.3113C126.058 21.2104 125.917 21.1541 125.77 21.1539H124.039L123.971 21.1579C123.825 21.1753 123.691 21.2478 123.597 21.3605C123.503 21.4733 123.455 21.6179 123.463 21.7647C123.472 21.9115 123.536 22.0495 123.643 22.1504C123.75 22.2514 123.892 22.3077 124.039 22.3078H125.77L125.837 22.3038C125.983 22.2864 126.117 22.214 126.212 22.1012C126.306 21.9884 126.354 21.8439 126.345 21.6971C126.336 21.5502 126.272 21.4123 126.165 21.3113Z" fill="#09244B"/>
<path fill-rule="evenodd" clip-rule="evenodd" d="M120.001 21.1539C120.766 21.1539 121.5 21.4578 122.041 21.9988C122.582 22.5399 122.886 23.2736 122.886 24.0388V25.1927C122.886 25.3457 122.825 25.4925 122.717 25.6007C122.608 25.7089 122.462 25.7697 122.309 25.7697C122.156 25.7697 122.009 25.7089 121.901 25.6007C121.792 25.4925 121.732 25.3457 121.732 25.1927V24.0388C121.732 23.5797 121.549 23.1394 121.225 22.8148C120.9 22.4902 120.46 22.3078 120.001 22.3078H115.385C114.926 22.3078 114.486 22.4902 114.161 22.8148C113.836 23.1394 113.654 23.5797 113.654 24.0388V25.1927C113.654 25.3457 113.593 25.4925 113.485 25.6007C113.377 25.7089 113.23 25.7697 113.077 25.7697C112.924 25.7697 112.777 25.7089 112.669 25.6007C112.561 25.4925 112.5 25.3457 112.5 25.1927V24.0388C112.5 23.2736 112.804 22.5399 113.345 21.9988C113.886 21.4578 114.62 21.1539 115.385 21.1539H120.001ZM117.693 14.2302C118.458 14.2302 119.192 14.5342 119.733 15.0752C120.274 15.6162 120.578 16.35 120.578 17.1151C120.578 17.8802 120.274 18.614 119.733 19.155C119.192 19.696 118.458 19.9999 117.693 19.9999C116.928 19.9999 116.194 19.696 115.653 19.155C115.112 18.614 114.808 17.8802 114.808 17.1151C114.808 16.35 115.112 15.6162 115.653 15.0752C116.194 14.5342 116.928 14.2302 117.693 14.2302ZM117.693 15.3842C117.465 15.3842 117.24 15.4289 117.03 15.5159C116.82 15.6029 116.63 15.7304 116.469 15.8911C116.308 16.0519 116.181 16.2427 116.094 16.4527C116.007 16.6627 115.962 16.8878 115.962 17.1151C115.962 17.3424 116.007 17.5675 116.094 17.7775C116.181 17.9875 116.308 18.1783 116.469 18.339C116.63 18.4998 116.82 18.6273 117.03 18.7142C117.24 18.8012 117.465 18.846 117.693 18.846C118.152 18.846 118.592 18.6636 118.917 18.339C119.241 18.0144 119.424 17.5742 119.424 17.1151C119.424 16.656 119.241 16.2158 118.917 15.8911C118.592 15.5665 118.152 15.3842 117.693 15.3842Z" fill="#09244B"/>
<rect x="150" width="40" height="40" rx="9.6" fill="#EDF1F8"/>
<path d="M170.75 13.2491C171.129 13.249 171.493 13.392 171.771 13.6493C172.048 13.9067 172.218 14.2594 172.246 14.6368L172.25 14.7493V17.7496H174.5C174.879 17.7495 175.244 17.8925 175.521 18.1498C175.799 18.4072 175.969 18.7599 175.997 19.1373L176.001 19.2498V25.2505H176.751C176.942 25.2507 177.126 25.3239 177.265 25.4551C177.404 25.5864 177.488 25.7657 177.499 25.9566C177.51 26.1475 177.448 26.3354 177.325 26.482C177.202 26.6286 177.028 26.7228 176.839 26.7454L176.751 26.7506H163.249C163.058 26.7504 162.874 26.6772 162.735 26.546C162.596 26.4147 162.512 26.2354 162.501 26.0445C162.49 25.8537 162.552 25.6657 162.675 25.5191C162.798 25.3725 162.972 25.2783 163.161 25.2557L163.249 25.2505H163.999V14.7493C163.999 14.3708 164.142 14.0063 164.4 13.7288C164.657 13.4513 165.01 13.2813 165.387 13.2529L165.5 13.2491H170.75ZM174.5 19.2498H172.25V25.2505H174.5V19.2498ZM170.75 14.7493H165.5V25.2505H170.75V14.7493ZM169.25 22.2501V23.7503H167V22.2501H169.25ZM169.25 19.2498V20.75H167V19.2498H169.25ZM169.25 16.2495V17.7496H167V16.2495H169.25Z" fill="#09244B"/>
</svg>
