<svg width="254" height="65" viewBox="0 0 254 65" fill="none" xmlns="http://www.w3.org/2000/svg">
<rect x="5" y="5" width="55" height="55" rx="8.55556" fill="#EFF9FB"/>
<rect x="5.5" y="5.5" width="54" height="54" rx="8.05556" stroke="#009FE3" stroke-opacity="0.35"/>
<g clip-path="url(#clip0_1454_13067)">
<path fill-rule="evenodd" clip-rule="evenodd" d="M33.5126 24.3334C34.1169 24.3335 34.711 24.4902 35.2368 24.7881C35.7627 25.0859 36.2024 25.5149 36.5133 26.0332L39.0414 30.246L42.1226 30.631C42.687 30.7016 43.2062 30.9759 43.5826 31.4023C43.959 31.8288 44.1667 32.3781 44.1666 32.9469V36C44.1668 36.7509 43.9256 37.482 43.4785 38.0853C43.0315 38.6886 42.4023 39.1323 41.6839 39.3507C41.4699 40.0568 41.0383 40.6773 40.4507 41.1235C39.8631 41.5697 39.1495 41.8189 38.4119 41.8354C37.6742 41.852 36.9502 41.6351 36.3431 41.2157C35.7361 40.7963 35.2771 40.1958 35.0316 39.5H29.9671C29.7211 40.195 29.262 40.7945 28.6552 41.2132C28.0485 41.6319 27.3251 41.8484 26.588 41.8319C25.851 41.8153 25.1381 41.5666 24.5507 41.121C23.9634 40.6755 23.5317 40.056 23.3171 39.3507C22.5984 39.1325 21.969 38.6889 21.5218 38.0856C21.0745 37.4823 20.8331 36.7511 20.8333 36V31.5585C20.8332 31.2616 20.8898 30.9674 21.0001 30.6917L22.6638 26.5337C22.9235 25.8843 23.3718 25.3276 23.951 24.9354C24.5301 24.5432 25.2135 24.3335 25.9129 24.3334H33.5126ZM38.3333 37.1667C38.0238 37.1667 37.7271 37.2896 37.5083 37.5084C37.2895 37.7272 37.1666 38.024 37.1666 38.3334C37.1666 38.6428 37.2895 38.9395 37.5083 39.1583C37.7271 39.3771 38.0238 39.5 38.3333 39.5C38.6427 39.5 38.9394 39.3771 39.1582 39.1583C39.377 38.9395 39.4999 38.6428 39.4999 38.3334C39.4999 38.024 39.377 37.7272 39.1582 37.5084C38.9394 37.2896 38.6427 37.1667 38.3333 37.1667ZM26.6666 37.1667C26.3572 37.1667 26.0604 37.2896 25.8416 37.5084C25.6228 37.7272 25.4999 38.024 25.4999 38.3334C25.4999 38.6428 25.6228 38.9395 25.8416 39.1583C26.0604 39.3771 26.3572 39.5 26.6666 39.5C26.976 39.5 27.2728 39.3771 27.4915 39.1583C27.7103 38.9395 27.8333 38.6428 27.8333 38.3334C27.8333 38.024 27.7103 37.7272 27.4915 37.5084C27.2728 37.2896 26.976 37.1667 26.6666 37.1667ZM38.3333 32.4697V32.5H23.1666V36C23.1666 36.322 23.2973 36.6137 23.5073 36.8249C23.7974 36.2163 24.2571 35.7044 24.8312 35.3509C25.4053 34.9973 26.0693 34.8171 26.7433 34.8319C27.4174 34.8467 28.0728 35.0559 28.6309 35.4343C29.1889 35.8126 29.6257 36.3441 29.8889 36.9649L29.9683 37.1667H35.0339C35.2648 36.514 35.6841 35.9444 36.2386 35.5299C36.7932 35.1154 37.4583 34.8746 38.1497 34.838C38.8411 34.8014 39.5278 34.9707 40.123 35.3243C40.7182 35.678 41.1953 36.2002 41.4938 36.8249C41.6688 36.6487 41.7889 36.4165 41.8239 36.1587L41.8333 36V32.9469L38.7521 32.5619C38.657 32.5498 38.5627 32.5319 38.4698 32.5082L38.3333 32.4697ZM33.5126 26.6667H31.3333V30.1667H36.2729L34.5124 27.2337C34.4089 27.0609 34.2624 26.9179 34.0872 26.8185C33.912 26.7192 33.714 26.6669 33.5126 26.6667ZM28.9999 26.6667H25.9129C25.6798 26.6669 25.4521 26.7368 25.2591 26.8676C25.0661 26.9984 24.9167 27.1841 24.8303 27.4005L23.7231 30.1667H28.9999V26.6667Z" fill="#009FE3"/>
</g>
<rect x="68" y="5" width="55" height="55" rx="8.55556" fill="#EFF9FB"/>
<rect x="68.5" y="5.5" width="54" height="54" rx="8.05556" stroke="#009FE3" stroke-opacity="0.35"/>
<g clip-path="url(#clip1_1454_13067)">
<path d="M105.917 30.4166V37.7083C105.917 38.5371 105.587 39.332 105.001 39.918C104.415 40.5041 103.62 40.8333 102.792 40.8333H88.2083C87.3795 40.8333 86.5846 40.5041 85.9985 39.918C85.4125 39.332 85.0833 38.5371 85.0833 37.7083V30.4166H105.917ZM101.75 34.5833H98.6249C98.3487 34.5833 98.0837 34.693 97.8884 34.8884C97.693 35.0837 97.5833 35.3487 97.5833 35.625C97.5833 35.9012 97.693 36.1662 97.8884 36.3615C98.0837 36.5569 98.3487 36.6666 98.6249 36.6666H101.75C102.026 36.6666 102.291 36.5569 102.486 36.3615C102.682 36.1662 102.792 35.9012 102.792 35.625C102.792 35.3487 102.682 35.0837 102.486 34.8884C102.291 34.693 102.026 34.5833 101.75 34.5833ZM102.792 24.1666C103.62 24.1666 104.415 24.4959 105.001 25.0819C105.587 25.668 105.917 26.4628 105.917 27.2916V28.3333H85.0833V27.2916C85.0833 26.4628 85.4125 25.668 85.9985 25.0819C86.5846 24.4959 87.3795 24.1666 88.2083 24.1666H102.792Z" fill="#009FE3"/>
</g>
<rect x="131" y="5" width="55" height="55" rx="8.55556" fill="#EFF9FB"/>
<rect x="131.5" y="5.5" width="54" height="54" rx="8.05556" stroke="#009FE3" stroke-opacity="0.35"/>
<g clip-path="url(#clip2_1454_13067)">
<path fill-rule="evenodd" clip-rule="evenodd" d="M157.753 32.29L157.979 32.34L161.695 33.268C162.866 33.561 163.455 34.796 163.085 35.908L163.405 35.688L164.051 35.226C164.376 34.996 164.708 34.778 165.053 34.606C166.589 33.838 168.387 34.897 168.495 36.577L168.5 36.737V36.792C168.5 37.489 168.2 38.149 167.68 38.606L167.533 38.726L164.463 41.028C164.164 41.252 163.827 41.418 163.469 41.518L163.251 41.57L160.041 42.212C159.044 42.4111 158.01 42.3016 157.077 41.898L156.825 41.781L154.475 40.606C154.371 40.5537 154.259 40.5199 154.144 40.506L154.028 40.5H153.232C153.071 40.7793 152.844 41.0154 152.572 41.1883C152.3 41.3612 151.99 41.4657 151.669 41.493L151.5 41.5H150.5C149.995 41.5002 149.509 41.3096 149.139 40.9665C148.769 40.6234 148.543 40.1532 148.505 39.65L148.5 39.5V35.5C148.5 34.9956 148.691 34.5099 149.034 34.1401C149.377 33.7703 149.847 33.5438 150.35 33.506L150.5 33.5H151.5C151.984 33.5 152.428 33.672 152.774 33.959L152.899 34.071L154.889 32.828C155.675 32.3369 156.606 32.1336 157.525 32.253L157.753 32.29ZM155.949 34.524L153.5 36.054V38.5H154.028C154.494 38.5 154.953 38.6086 155.37 38.817L157.72 39.992C158.317 40.2902 158.996 40.381 159.65 40.25L162.859 39.608C163.005 39.579 163.143 39.5175 163.263 39.428L166.333 37.125C166.461 37.029 166.5 36.888 166.5 36.736C166.5 36.6745 166.485 36.614 166.457 36.5595C166.428 36.505 166.387 36.4581 166.337 36.4229C166.287 36.3876 166.229 36.3651 166.168 36.3571C166.107 36.3491 166.045 36.3559 165.987 36.377L163.559 37.997C163.066 38.3254 162.486 38.5004 161.894 38.5H158.5V36.5H160.059C160.269 36.4998 160.473 36.4337 160.643 36.311C160.813 36.1882 160.941 36.015 161.007 35.816L161.21 35.208L157.494 34.28C157.233 34.2148 156.962 34.2028 156.697 34.2447C156.431 34.2866 156.177 34.3816 155.949 34.524ZM151.5 35.5H150.5V39.5H151.5V35.5ZM162.5 23.97C163.53 23.326 164.712 23.377 165.666 23.933C166.778 24.581 167.532 25.875 167.499 27.355C167.458 29.19 166.089 30.699 164.061 31.955L163.663 32.194C163.305 32.406 162.923 32.612 162.5 32.612C162.077 32.612 161.695 32.406 161.337 32.194L160.939 31.954C158.91 30.698 157.542 29.19 157.5 27.354C157.467 25.874 158.221 24.58 159.333 23.932C160.287 23.376 161.468 23.325 162.499 23.969L162.5 23.97ZM164.659 25.661C164.28 25.441 163.829 25.415 163.381 25.797L163.175 25.987C162.983 26.1397 162.745 26.2228 162.5 26.2228C162.255 26.2228 162.017 26.1397 161.825 25.987L161.619 25.797C161.17 25.415 160.719 25.44 160.341 25.661C159.88 25.93 159.483 26.531 159.501 27.311C159.518 28.089 160.119 29.091 161.969 30.24L162.207 30.384L162.5 30.555L162.793 30.385C164.83 29.173 165.481 28.12 165.5 27.308C165.518 26.529 165.121 25.928 164.66 25.659L164.659 25.661Z" fill="#009FE3"/>
</g>
<rect x="194" y="5" width="55" height="55" rx="8.55556" fill="#EFF9FB"/>
<rect x="194.5" y="5.5" width="54" height="54" rx="8.05556" stroke="#009FE3" stroke-opacity="0.35"/>
<g clip-path="url(#clip3_1454_13067)">
<path fill-rule="evenodd" clip-rule="evenodd" d="M220.798 22.6951C221.193 22.5474 221.624 22.5282 222.03 22.6401L222.202 22.6951L229.202 25.3201C229.557 25.4531 229.867 25.6844 230.095 25.9868C230.324 26.2892 230.462 26.6503 230.493 27.0281L230.5 27.1931V32.5561C230.5 34.1765 230.062 35.7668 229.234 37.1592C228.405 38.5517 227.215 39.6945 225.791 40.4671L225.525 40.6061L222.171 42.2831C221.986 42.3753 221.785 42.4284 221.578 42.439C221.372 42.4497 221.166 42.4177 220.973 42.3451L220.829 42.2831L217.475 40.6061C216.026 39.8813 214.799 38.7787 213.924 37.4147C213.049 36.0506 212.559 34.4756 212.505 32.8561L212.5 32.5561V27.1931C212.5 26.8142 212.608 26.4431 212.81 26.123C213.013 25.8029 213.302 25.547 213.645 25.3851L213.798 25.3201L220.798 22.6951ZM221.5 24.5681L214.5 27.1931V32.5561C214.5 33.8111 214.837 35.043 215.477 36.1228C216.116 37.2027 217.035 38.0908 218.135 38.6941L218.37 38.8171L221.5 40.3821L224.63 38.8171C225.753 38.2558 226.704 37.403 227.384 36.3479C228.064 35.2929 228.448 34.0744 228.495 32.8201L228.5 32.5561V27.1931L221.5 24.5681ZM221.008 28.0161C221.279 27.9147 221.574 27.8997 221.854 27.9731L221.992 28.0161L224.792 29.0661C225.038 29.1582 225.252 29.3175 225.412 29.5257C225.571 29.734 225.669 29.9829 225.694 30.2441L225.7 30.3771V32.5221C225.7 33.2654 225.503 33.9953 225.128 34.6375C224.754 35.2796 224.216 35.8109 223.569 36.1771L223.379 36.2791L222.037 36.9491C221.892 37.0218 221.733 37.0643 221.571 37.074C221.408 37.0836 221.246 37.0601 221.093 37.0051L220.963 36.9501L219.622 36.2791C218.957 35.9467 218.393 35.4439 217.986 34.8219C217.579 34.2 217.344 33.4813 217.306 32.7391L217.3 32.5221V30.3771C217.3 30.1148 217.374 29.8578 217.513 29.6354C217.652 29.413 217.85 29.2341 218.086 29.1191L218.208 29.0661L221.008 28.0161ZM221.5 29.9681L219.3 30.7931V32.5231C219.3 32.9032 219.399 33.2769 219.586 33.6076C219.774 33.9383 220.044 34.2148 220.37 34.4101L220.516 34.4901L221.5 34.9821L222.484 34.4901C222.824 34.3199 223.115 34.0645 223.327 33.7487C223.539 33.4328 223.665 33.0674 223.694 32.6881L223.7 32.5221V30.7931L221.5 29.9681Z" fill="#009FE3"/>
</g>
<defs>
<clipPath id="clip0_1454_13067">
<rect width="28" height="28" fill="white" transform="translate(18.5 18.5)"/>
</clipPath>
<clipPath id="clip1_1454_13067">
<rect width="25" height="25" fill="white" transform="translate(83 20)"/>
</clipPath>
<clipPath id="clip2_1454_13067">
<rect width="24" height="24" fill="white" transform="translate(146.5 20.5)"/>
</clipPath>
<clipPath id="clip3_1454_13067">
<rect width="24" height="24" fill="white" transform="translate(209.5 20.5)"/>
</clipPath>
</defs>
</svg>
