<svg width="198" height="48" viewBox="0 0 198 48" fill="none" xmlns="http://www.w3.org/2000/svg">
<g clip-path="url(#clip0_1385_9813)">
<path d="M3.25391 16.7446C3.25391 15.3971 3.25391 14.7234 3.55721 14.2284C3.72692 13.9515 3.95977 13.7186 4.23672 13.5489C4.73167 13.2456 5.40542 13.2456 6.75293 13.2456C8.10044 13.2456 8.77419 13.2456 9.26914 13.5489C9.54609 13.7186 9.77894 13.9515 9.94865 14.2284C10.252 14.7234 10.252 15.3971 10.252 16.7446C10.252 18.0921 10.252 18.7659 9.94865 19.2608C9.77894 19.5378 9.54609 19.7706 9.26914 19.9403C8.77419 20.2437 8.10044 20.2437 6.75293 20.2437C5.40542 20.2437 4.73167 20.2437 4.23672 19.9403C3.95977 19.7706 3.72692 19.5378 3.55721 19.2608C3.25391 18.7659 3.25391 18.0921 3.25391 16.7446Z" stroke="#5B5F6E" stroke-width="1.57968"/>
<path d="M13.748 16.7446C13.748 15.3971 13.748 14.7234 14.0514 14.2284C14.2211 13.9515 14.4539 13.7186 14.7309 13.5489C15.2258 13.2456 15.8996 13.2456 17.2471 13.2456C18.5946 13.2456 19.2683 13.2456 19.7633 13.5489C20.0402 13.7186 20.2731 13.9515 20.4428 14.2284C20.7461 14.7234 20.7461 15.3971 20.7461 16.7446C20.7461 18.0921 20.7461 18.7659 20.4428 19.2608C20.2731 19.5378 20.0402 19.7706 19.7633 19.9403C19.2683 20.2437 18.5946 20.2437 17.2471 20.2437C15.8996 20.2437 15.2258 20.2437 14.7309 19.9403C14.4539 19.7706 14.2211 19.5378 14.0514 19.2608C13.748 18.7659 13.748 18.0921 13.748 16.7446Z" stroke="#5B5F6E" stroke-width="1.57968"/>
<path d="M3.25391 6.24854C3.25391 4.90103 3.25391 4.22727 3.55721 3.73233C3.72692 3.45538 3.95977 3.22253 4.23672 3.05282C4.73167 2.74951 5.40542 2.74951 6.75293 2.74951C8.10044 2.74951 8.77419 2.74951 9.26914 3.05282C9.54609 3.22253 9.77894 3.45538 9.94865 3.73233C10.252 4.22727 10.252 4.90103 10.252 6.24854C10.252 7.59604 10.252 8.2698 9.94865 8.76474C9.77894 9.04169 9.54609 9.27454 9.26914 9.44426C8.77419 9.74756 8.10044 9.74756 6.75293 9.74756C5.40542 9.74756 4.73167 9.74756 4.23672 9.44426C3.95977 9.27454 3.72692 9.04169 3.55721 8.76474C3.25391 8.2698 3.25391 7.59604 3.25391 6.24854Z" stroke="#5B5F6E" stroke-width="1.57968"/>
<path d="M13.748 6.24854C13.748 4.90103 13.748 4.22727 14.0514 3.73233C14.2211 3.45538 14.4539 3.22253 14.7309 3.05282C15.2258 2.74951 15.8996 2.74951 17.2471 2.74951C18.5946 2.74951 19.2683 2.74951 19.7633 3.05282C20.0402 3.22253 20.2731 3.45538 20.4428 3.73233C20.7461 4.22727 20.7461 4.90103 20.7461 6.24854C20.7461 7.59604 20.7461 8.2698 20.4428 8.76474C20.2731 9.04169 20.0402 9.27454 19.7633 9.44426C19.2683 9.74756 18.5946 9.74756 17.2471 9.74756C15.8996 9.74756 15.2258 9.74756 14.7309 9.44426C14.4539 9.27454 14.2211 9.04169 14.0514 8.76474C13.748 8.2698 13.748 7.59604 13.748 6.24854Z" stroke="#5B5F6E" stroke-width="1.57968"/>
</g>
<g clip-path="url(#clip1_1385_9813)">
<path fill-rule="evenodd" clip-rule="evenodd" d="M45 13.4121C46.2885 13.4122 47.5272 13.8888 48.4578 14.7425C49.3884 15.5962 49.9391 16.7611 49.995 17.9943L50 18.2021V20.1182C49.9997 20.3623 49.9021 20.5972 49.7272 20.7748C49.5522 20.9523 49.313 21.0592 49.0586 21.0735C48.8042 21.0878 48.5536 21.0085 48.3582 20.8517C48.1627 20.695 48.0371 20.4727 48.007 20.2303L48 20.1182V18.2021C48 17.4691 47.7077 16.7637 47.1827 16.2303C46.6578 15.697 45.9399 15.3759 45.176 15.3329L45 15.3281H37C36.2348 15.3281 35.4985 15.6082 34.9417 16.1111C34.385 16.614 34.0499 17.3017 34.005 18.0335L34 18.2021V20.1182C33.9997 20.3623 33.9021 20.5972 33.7272 20.7748C33.5522 20.9523 33.313 21.0592 33.0586 21.0735C32.8042 21.0878 32.5536 21.0085 32.3582 20.8517C32.1627 20.695 32.0371 20.4727 32.007 20.2303L32 20.1182V18.2021C32.0001 16.9678 32.4975 15.7811 33.3887 14.8896C34.2798 13.998 35.4958 13.4705 36.783 13.4169L37 13.4121H45ZM41 1.91602C42.3261 1.91602 43.5979 2.42068 44.5355 3.31899C45.4732 4.21729 46 5.43566 46 6.70605C46 7.97645 45.4732 9.19482 44.5355 10.0931C43.5979 10.9914 42.3261 11.4961 41 11.4961C39.6739 11.4961 38.4021 10.9914 37.4645 10.0931C36.5268 9.19482 36 7.97645 36 6.70605C36 5.43566 36.5268 4.21729 37.4645 3.31899C38.4021 2.42068 39.6739 1.91602 41 1.91602ZM41 3.83203C40.606 3.83203 40.2159 3.90637 39.8519 4.0508C39.488 4.19524 39.1573 4.40694 38.8787 4.67381C38.6001 4.94069 38.3791 5.25752 38.2284 5.60621C38.0776 5.95491 38 6.32863 38 6.70605C38 7.08348 38.0776 7.4572 38.2284 7.8059C38.3791 8.15459 38.6001 8.47142 38.8787 8.7383C39.1573 9.00517 39.488 9.21687 39.8519 9.36131C40.2159 9.50574 40.606 9.58008 41 9.58008C41.7956 9.58008 42.5587 9.27728 43.1213 8.7383C43.6839 8.19931 44 7.46829 44 6.70605C44 5.94382 43.6839 5.2128 43.1213 4.67381C42.5587 4.13483 41.7956 3.83203 41 3.83203Z" fill="#5B5F6E"/>
</g>
<g clip-path="url(#clip2_1385_9813)">
<path d="M80.4403 3.69847C80.1035 3.36171 79.5423 3.13721 78.981 3.13721H61.0206C60.4593 3.13721 60.0103 3.36171 59.5613 3.69847C59.2245 4.03523 59 4.59649 59 5.04551V17.9546C59 18.5158 59.2245 18.9649 59.5613 19.3016C59.898 19.6384 60.4593 19.8629 61.0206 19.8629H78.981C79.5423 19.8629 79.9913 19.6384 80.4403 19.3016C80.7771 18.9649 81.0016 18.4036 81.0016 17.9546V5.04551C81.0016 4.48424 80.7771 4.03523 80.4403 3.69847ZM79.2055 18.1791H60.796V4.821H79.2055V18.1791Z" fill="#5B5F6E"/>
<path d="M77.6338 13.6891C77.6338 13.9136 77.6338 14.1381 77.4093 14.2504C77.2971 14.4749 77.0726 14.4749 76.7358 14.4749H72.2457C72.0212 14.4749 71.7967 14.4749 71.5722 14.2504C71.4599 14.1381 71.3477 13.9136 71.3477 13.6891C71.3477 13.4646 71.3477 13.2401 71.5722 13.1278C71.6844 12.9033 72.0212 12.9033 72.2457 12.9033H76.7358C76.9603 12.9033 77.1848 12.9033 77.4093 13.1278C77.6338 13.2401 77.6338 13.4646 77.6338 13.6891Z" fill="#5B5F6E"/>
<path d="M75.3888 10.4332C75.3888 10.6577 75.3888 10.8822 75.1643 10.9945C75.052 11.1067 74.8275 11.219 74.4907 11.219H72.2457C72.0212 11.219 71.7967 11.219 71.5722 10.9945C71.4599 10.8822 71.3477 10.6577 71.3477 10.4332C71.3477 10.2087 71.3477 9.98422 71.5722 9.87197C71.6844 9.75971 72.0212 9.64746 72.2457 9.64746H74.4907C74.7152 9.64746 74.9397 9.64746 75.1643 9.87197C75.3888 10.0965 75.3888 10.2087 75.3888 10.4332Z" fill="#5B5F6E"/>
<path d="M69.776 14.2503V14.8116C69.776 15.0361 69.776 15.2606 69.5515 15.3729C69.2147 15.7096 68.6535 15.7096 68.3167 15.3729C68.2044 15.2606 68.0922 15.0361 68.0922 14.8116V14.2503C68.0922 14.0258 68.0922 13.8013 67.8677 13.6891C67.7554 13.5768 67.5309 13.4646 67.3064 13.4646H65.0614C64.8369 13.4646 64.6123 13.4646 64.5001 13.6891C64.3878 13.8013 64.2756 14.0258 64.2756 14.2503V14.8116C64.2756 15.0361 64.2756 15.2606 64.0511 15.3729C63.7143 15.7096 63.1531 15.7096 62.8163 15.3729C62.704 15.2606 62.5918 15.0361 62.5918 14.8116V14.2503C62.5918 13.5768 62.8163 13.0155 63.3776 12.5665C63.8266 12.1175 64.5001 11.7808 65.1736 11.7808H67.4187C67.7554 11.7808 68.0922 11.7808 68.4289 12.0053C68.7657 12.1175 68.9902 12.342 69.2147 12.5665C69.4392 12.791 69.6637 13.0155 69.776 13.3523C69.8882 13.6891 70.0005 13.9136 70.0005 14.2503H69.776Z" fill="#5B5F6E"/>
<path d="M67.8685 9.08619C67.8685 9.5352 67.644 9.98421 67.4195 10.2087C67.0827 10.5455 66.6337 10.6577 66.1847 10.6577C65.7357 10.6577 65.2867 10.4332 64.9499 10.2087C64.6132 9.87196 64.3887 9.42295 64.3887 9.08619C64.3887 8.74943 64.6132 8.18817 64.9499 7.96366C65.2867 7.6269 65.7357 7.51465 66.1847 7.51465C66.6337 7.51465 67.0827 7.73915 67.4195 7.96366C67.7563 8.30042 67.8685 8.74943 67.8685 9.08619Z" fill="#5B5F6E"/>
</g>
<g opacity="0.6">
<path d="M103 16.2861L96 16.2861" stroke="#141B34" stroke-width="1.73077" stroke-linecap="round" stroke-linejoin="round"/>
<path d="M103 12.4541L100 12.4541" stroke="#141B34" stroke-width="1.73077" stroke-linecap="round" stroke-linejoin="round"/>
<path d="M107.5 13.4121C107.5 17.025 107.5 18.8314 106.255 19.9538C105.01 21.0762 103.007 21.0762 99 21.0762H98.2273C94.9661 21.0762 93.3355 21.0762 92.2031 20.3118C91.8786 20.0928 91.5906 19.8331 91.3477 19.5406C90.5 18.5196 90.5 17.0493 90.5 14.1088V11.6703C90.5 8.83154 90.5 7.41217 90.9689 6.27855C91.7228 4.4561 93.3171 3.01857 95.3384 2.33884C96.5956 1.91602 98.1698 1.91602 101.318 1.91602C103.117 1.91602 104.017 1.91602 104.735 2.15763C105.89 2.54605 106.801 3.36749 107.232 4.40889C107.5 5.05667 107.5 5.86774 107.5 7.48988V13.4121Z" stroke="#141B34" stroke-width="1.73077" stroke-linejoin="round"/>
<path d="M90.5 11.4961C90.5 9.73245 91.9924 8.30273 93.8333 8.30273C94.4991 8.30273 95.284 8.4145 95.9314 8.24833C96.5065 8.10069 96.9558 7.67031 97.1099 7.11931C97.2833 6.49916 97.1667 5.7472 97.1667 5.10938C97.1667 3.34573 98.6591 1.91602 100.5 1.91602" stroke="#141B34" stroke-width="1.73077" stroke-linecap="round" stroke-linejoin="round"/>
</g>
<path d="M138 11.081C138 16.1423 133.522 20.246 128 20.246C127.351 20.2468 126.703 20.1893 126.065 20.0745C125.606 19.9919 125.377 19.9506 125.217 19.9741C125.056 19.9975 124.829 20.1132 124.375 20.3446C123.09 20.9992 121.592 21.2304 120.151 20.9736C120.699 20.3283 121.073 19.5541 121.238 18.724C121.338 18.2164 121.09 17.7231 120.719 17.3621C119.033 15.7224 118 13.5128 118 11.081C118 6.01971 122.478 1.91602 128 1.91602C133.522 1.91602 138 6.01971 138 11.081Z" stroke="#5B5F6E" stroke-width="1.73077" stroke-linejoin="round"/>
<path d="M127.996 11.4961H128.004M131.991 11.4961H132M124 11.4961H124.009" stroke="#5B5F6E" stroke-width="1.92308" stroke-linecap="round" stroke-linejoin="round"/>
<g clip-path="url(#clip3_1385_9813)">
<path d="M160 1.99121C160.657 1.99121 161.238 2.30636 161.584 2.78613V2.78711L161.67 2.91504L161.691 2.94922H163C163.487 2.94907 163.955 3.12518 164.311 3.44141C164.622 3.71805 164.828 4.08367 164.898 4.48047L164.92 4.65234L164.925 4.79297V16.2861L164.919 16.5127C164.862 17.6447 164.381 18.7229 163.559 19.5459C162.736 20.3689 161.631 20.8775 160.451 20.9814L160.214 20.9961L159.998 21.001H151L150.818 20.9932C150.398 20.9552 150.001 20.7854 149.689 20.5088C149.378 20.2321 149.172 19.8665 149.102 19.4697L149.08 19.2979L149.075 19.1572V4.79004L149.083 4.61719C149.122 4.21663 149.298 3.8372 149.587 3.53906C149.917 3.1982 150.37 2.98906 150.855 2.9541L150.854 2.95312L151.002 2.94922H152.311L152.332 2.91309C152.487 2.65614 152.705 2.4378 152.967 2.27832C153.228 2.11962 153.525 2.02275 153.833 1.99707L153.834 1.99805L154.003 1.99121H160ZM150.925 19.2354H160C160.815 19.2354 161.596 18.9247 162.173 18.3721C162.75 17.8193 163.075 17.0693 163.075 16.2861V4.71484H161.925V4.79004C161.925 5.27724 161.723 5.74529 161.362 6.09082C161.002 6.43641 160.512 6.63086 160 6.63086H154C153.488 6.63086 152.998 6.43641 152.638 6.09082C152.277 5.74529 152.075 5.27724 152.075 4.79004V4.71484H150.925V19.2354ZM157 13.4873C157.237 13.4876 157.464 13.5746 157.635 13.7295C157.806 13.8843 157.908 14.0948 157.922 14.3184C157.936 14.542 157.86 14.7629 157.709 14.9355C157.577 15.0868 157.396 15.1918 157.195 15.2334L157.112 15.2461L156.996 15.2529H154L153.912 15.249C153.708 15.2302 153.515 15.1463 153.365 15.0107C153.194 14.856 153.092 14.6455 153.078 14.4219C153.064 14.1982 153.14 13.9774 153.291 13.8047C153.441 13.6331 153.654 13.5209 153.887 13.4932L153.888 13.4941L154.004 13.4873H157ZM154 9.65527H160C160.246 9.65527 160.482 9.74907 160.655 9.91504C160.828 10.0809 160.925 10.305 160.925 10.5381C160.925 10.7712 160.828 10.9953 160.655 11.1611C160.482 11.3271 160.246 11.4209 160 11.4209H154C153.754 11.4209 153.518 11.3271 153.345 11.1611C153.172 10.9953 153.075 10.7712 153.075 10.5381C153.075 10.305 153.172 10.0809 153.345 9.91504C153.518 9.74907 153.754 9.65527 154 9.65527ZM153.925 4.86523H160.075V3.75684H153.925V4.86523Z" fill="#5B5F6E" stroke="white" stroke-width="0.15"/>
</g>
<g clip-path="url(#clip4_1385_9813)">
<path d="M186 1.91602C191.523 1.91602 196 6.20502 196 11.4961C196 16.7872 191.523 21.0762 186 21.0762C180.477 21.0762 176 16.7872 176 11.4961C176 6.20502 180.477 1.91602 186 1.91602ZM186 3.83203C183.878 3.83203 181.843 4.63949 180.343 6.07678C178.843 7.51407 178 9.46346 178 11.4961C178 13.5287 178.843 15.4781 180.343 16.9154C181.843 18.3527 183.878 19.1602 186 19.1602C188.122 19.1602 190.157 18.3527 191.657 16.9154C193.157 15.4781 194 13.5287 194 11.4961C194 9.46346 193.157 7.51407 191.657 6.07678C190.157 4.63949 188.122 3.83203 186 3.83203ZM186 5.74805C186.245 5.74808 186.481 5.83423 186.664 5.99015C186.847 6.14607 186.964 6.36093 186.993 6.59397L187 6.70605V11.0995L189.707 13.6928C189.886 13.8652 189.99 14.0965 189.998 14.3398C190.006 14.5831 189.917 14.8201 189.749 15.0027C189.581 15.1852 189.346 15.2997 189.094 15.3228C188.841 15.3458 188.588 15.2758 188.387 15.1269L188.293 15.0474L185.293 12.1734C185.138 12.0244 185.038 11.8304 185.009 11.6216L185 11.4961V6.70605C185 6.45198 185.105 6.2083 185.293 6.02864C185.48 5.84898 185.735 5.74805 186 5.74805Z" fill="#5B5F6E"/>
</g>
<g clip-path="url(#clip5_1385_9813)">
<path d="M3.25391 41.7446C3.25391 40.3971 3.25391 39.7234 3.55721 39.2284C3.72692 38.9515 3.95977 38.7186 4.23672 38.5489C4.73167 38.2456 5.40542 38.2456 6.75293 38.2456C8.10044 38.2456 8.77419 38.2456 9.26914 38.5489C9.54609 38.7186 9.77894 38.9515 9.94865 39.2284C10.252 39.7234 10.252 40.3971 10.252 41.7446C10.252 43.0921 10.252 43.7659 9.94865 44.2608C9.77894 44.5378 9.54609 44.7706 9.26914 44.9403C8.77419 45.2437 8.10044 45.2437 6.75293 45.2437C5.40542 45.2437 4.73167 45.2437 4.23672 44.9403C3.95977 44.7706 3.72692 44.5378 3.55721 44.2608C3.25391 43.7659 3.25391 43.0921 3.25391 41.7446Z" stroke="#009FE3" stroke-width="1.57968"/>
<path d="M13.748 41.7446C13.748 40.3971 13.748 39.7234 14.0514 39.2284C14.2211 38.9515 14.4539 38.7186 14.7309 38.5489C15.2258 38.2456 15.8996 38.2456 17.2471 38.2456C18.5946 38.2456 19.2683 38.2456 19.7633 38.5489C20.0402 38.7186 20.2731 38.9515 20.4428 39.2284C20.7461 39.7234 20.7461 40.3971 20.7461 41.7446C20.7461 43.0921 20.7461 43.7659 20.4428 44.2608C20.2731 44.5378 20.0402 44.7706 19.7633 44.9403C19.2683 45.2437 18.5946 45.2437 17.2471 45.2437C15.8996 45.2437 15.2258 45.2437 14.7309 44.9403C14.4539 44.7706 14.2211 44.5378 14.0514 44.2608C13.748 43.7659 13.748 43.0921 13.748 41.7446Z" stroke="#009FE3" stroke-width="1.57968"/>
<path d="M3.25391 31.2485C3.25391 29.901 3.25391 29.2273 3.55721 28.7323C3.72692 28.4554 3.95977 28.2225 4.23672 28.0528C4.73167 27.7495 5.40542 27.7495 6.75293 27.7495C8.10044 27.7495 8.77419 27.7495 9.26914 28.0528C9.54609 28.2225 9.77894 28.4554 9.94865 28.7323C10.252 29.2273 10.252 29.901 10.252 31.2485C10.252 32.596 10.252 33.2698 9.94865 33.7647C9.77894 34.0417 9.54609 34.2745 9.26914 34.4443C8.77419 34.7476 8.10044 34.7476 6.75293 34.7476C5.40542 34.7476 4.73167 34.7476 4.23672 34.4443C3.95977 34.2745 3.72692 34.0417 3.55721 33.7647C3.25391 33.2698 3.25391 32.596 3.25391 31.2485Z" stroke="#009FE3" stroke-width="1.57968"/>
<path d="M13.748 31.2485C13.748 29.901 13.748 29.2273 14.0514 28.7323C14.2211 28.4554 14.4539 28.2225 14.7309 28.0528C15.2258 27.7495 15.8996 27.7495 17.2471 27.7495C18.5946 27.7495 19.2683 27.7495 19.7633 28.0528C20.0402 28.2225 20.2731 28.4554 20.4428 28.7323C20.7461 29.2273 20.7461 29.901 20.7461 31.2485C20.7461 32.596 20.7461 33.2698 20.4428 33.7647C20.2731 34.0417 20.0402 34.2745 19.7633 34.4443C19.2683 34.7476 18.5946 34.7476 17.2471 34.7476C15.8996 34.7476 15.2258 34.7476 14.7309 34.4443C14.4539 34.2745 14.2211 34.0417 14.0514 33.7647C13.748 33.2698 13.748 32.596 13.748 31.2485Z" stroke="#009FE3" stroke-width="1.57968"/>
</g>
<g clip-path="url(#clip6_1385_9813)">
<path fill-rule="evenodd" clip-rule="evenodd" d="M45 38.4121C46.2885 38.4122 47.5272 38.8888 48.4578 39.7425C49.3884 40.5962 49.9391 41.7611 49.995 42.9943L50 43.2021V45.1182C49.9997 45.3623 49.9021 45.5972 49.7272 45.7748C49.5522 45.9523 49.313 46.0592 49.0586 46.0735C48.8042 46.0878 48.5536 46.0085 48.3582 45.8517C48.1627 45.695 48.0371 45.4727 48.007 45.2303L48 45.1182V43.2021C48 42.4691 47.7077 41.7637 47.1827 41.2303C46.6578 40.697 45.9399 40.3759 45.176 40.3329L45 40.3281H37C36.2348 40.3281 35.4985 40.6082 34.9417 41.1111C34.385 41.614 34.0499 42.3017 34.005 43.0335L34 43.2021V45.1182C33.9997 45.3623 33.9021 45.5972 33.7272 45.7748C33.5522 45.9523 33.313 46.0592 33.0586 46.0735C32.8042 46.0878 32.5536 46.0085 32.3582 45.8517C32.1627 45.695 32.0371 45.4727 32.007 45.2303L32 45.1182V43.2021C32.0001 41.9678 32.4975 40.7811 33.3887 39.8896C34.2798 38.998 35.4958 38.4705 36.783 38.4169L37 38.4121H45ZM41 26.916C42.3261 26.916 43.5979 27.4207 44.5355 28.319C45.4732 29.2173 46 30.4357 46 31.7061C46 32.9765 45.4732 34.1948 44.5355 35.0931C43.5979 35.9914 42.3261 36.4961 41 36.4961C39.6739 36.4961 38.4021 35.9914 37.4645 35.0931C36.5268 34.1948 36 32.9765 36 31.7061C36 30.4357 36.5268 29.2173 37.4645 28.319C38.4021 27.4207 39.6739 26.916 41 26.916ZM41 28.832C40.606 28.832 40.2159 28.9064 39.8519 29.0508C39.488 29.1952 39.1573 29.4069 38.8787 29.6738C38.6001 29.9407 38.3791 30.2575 38.2284 30.6062C38.0776 30.9549 38 31.3286 38 31.7061C38 32.0835 38.0776 32.4572 38.2284 32.8059C38.3791 33.1546 38.6001 33.4714 38.8787 33.7383C39.1573 34.0052 39.488 34.2169 39.8519 34.3613C40.2159 34.5057 40.606 34.5801 41 34.5801C41.7956 34.5801 42.5587 34.2773 43.1213 33.7383C43.6839 33.1993 44 32.4683 44 31.7061C44 30.9438 43.6839 30.2128 43.1213 29.6738C42.5587 29.1348 41.7956 28.832 41 28.832Z" fill="#009FE3"/>
</g>
<g clip-path="url(#clip7_1385_9813)">
<path d="M80.4403 28.6985C80.1035 28.3617 79.5423 28.1372 78.981 28.1372H61.0206C60.4593 28.1372 60.0103 28.3617 59.5613 28.6985C59.2245 29.0352 59 29.5965 59 30.0455V42.9546C59 43.5158 59.2245 43.9649 59.5613 44.3016C59.898 44.6384 60.4593 44.8629 61.0206 44.8629H78.981C79.5423 44.8629 79.9913 44.6384 80.4403 44.3016C80.7771 43.9649 81.0016 43.4036 81.0016 42.9546V30.0455C81.0016 29.4842 80.7771 29.0352 80.4403 28.6985ZM79.2055 43.1791H60.796V29.821H79.2055V43.1791Z" fill="#009FE3"/>
<path d="M77.6338 38.6891C77.6338 38.9136 77.6338 39.1381 77.4093 39.2504C77.2971 39.4749 77.0726 39.4749 76.7358 39.4749H72.2457C72.0212 39.4749 71.7967 39.4749 71.5722 39.2504C71.4599 39.1381 71.3477 38.9136 71.3477 38.6891C71.3477 38.4646 71.3477 38.2401 71.5722 38.1278C71.6844 37.9033 72.0212 37.9033 72.2457 37.9033H76.7358C76.9603 37.9033 77.1848 37.9033 77.4093 38.1278C77.6338 38.2401 77.6338 38.4646 77.6338 38.6891Z" fill="#009FE3"/>
<path d="M75.3888 35.4332C75.3888 35.6577 75.3888 35.8822 75.1643 35.9945C75.052 36.1067 74.8275 36.219 74.4907 36.219H72.2457C72.0212 36.219 71.7967 36.219 71.5722 35.9945C71.4599 35.8822 71.3477 35.6577 71.3477 35.4332C71.3477 35.2087 71.3477 34.9842 71.5722 34.872C71.6844 34.7597 72.0212 34.6475 72.2457 34.6475H74.4907C74.7152 34.6475 74.9397 34.6475 75.1643 34.872C75.3888 35.0965 75.3888 35.2087 75.3888 35.4332Z" fill="#009FE3"/>
<path d="M69.776 39.2503V39.8116C69.776 40.0361 69.776 40.2606 69.5515 40.3729C69.2147 40.7096 68.6535 40.7096 68.3167 40.3729C68.2044 40.2606 68.0922 40.0361 68.0922 39.8116V39.2503C68.0922 39.0258 68.0922 38.8013 67.8677 38.6891C67.7554 38.5768 67.5309 38.4646 67.3064 38.4646H65.0614C64.8369 38.4646 64.6123 38.4646 64.5001 38.6891C64.3878 38.8013 64.2756 39.0258 64.2756 39.2503V39.8116C64.2756 40.0361 64.2756 40.2606 64.0511 40.3729C63.7143 40.7096 63.1531 40.7096 62.8163 40.3729C62.704 40.2606 62.5918 40.0361 62.5918 39.8116V39.2503C62.5918 38.5768 62.8163 38.0155 63.3776 37.5665C63.8266 37.1175 64.5001 36.7808 65.1736 36.7808H67.4187C67.7554 36.7808 68.0922 36.7808 68.4289 37.0053C68.7657 37.1175 68.9902 37.342 69.2147 37.5665C69.4392 37.791 69.6637 38.0155 69.776 38.3523C69.8882 38.6891 70.0005 38.9136 70.0005 39.2503H69.776Z" fill="#009FE3"/>
<path d="M67.8685 34.0862C67.8685 34.5352 67.644 34.9842 67.4195 35.2087C67.0827 35.5455 66.6337 35.6577 66.1847 35.6577C65.7357 35.6577 65.2867 35.4332 64.9499 35.2087C64.6132 34.872 64.3887 34.4229 64.3887 34.0862C64.3887 33.7494 64.6132 33.1882 64.9499 32.9637C65.2867 32.6269 65.7357 32.5146 66.1847 32.5146C66.6337 32.5146 67.0827 32.7392 67.4195 32.9637C67.7563 33.3004 67.8685 33.7494 67.8685 34.0862Z" fill="#009FE3"/>
</g>
<path d="M103 41.2861L96 41.2861" stroke="#009FE3" stroke-width="1.73077" stroke-linecap="round" stroke-linejoin="round"/>
<path d="M103 37.4541L100 37.4541" stroke="#009FE3" stroke-width="1.73077" stroke-linecap="round" stroke-linejoin="round"/>
<path d="M107.5 38.4121C107.5 42.025 107.5 43.8314 106.255 44.9538C105.01 46.0762 103.007 46.0762 99 46.0762H98.2273C94.9661 46.0762 93.3355 46.0762 92.2031 45.3118C91.8786 45.0928 91.5906 44.8331 91.3477 44.5406C90.5 43.5196 90.5 42.0493 90.5 39.1088V36.6703C90.5 33.8315 90.5 32.4122 90.9689 31.2785C91.7228 29.4561 93.3171 28.0186 95.3384 27.3388C96.5956 26.916 98.1698 26.916 101.318 26.916C103.117 26.916 104.017 26.916 104.735 27.1576C105.89 27.546 106.801 28.3675 107.232 29.4089C107.5 30.0567 107.5 30.8677 107.5 32.4899V38.4121Z" stroke="#009FE3" stroke-width="1.73077" stroke-linejoin="round"/>
<path d="M90.5 36.4961C90.5 34.7325 91.9924 33.3027 93.8333 33.3027C94.4991 33.3027 95.284 33.4145 95.9314 33.2483C96.5065 33.1007 96.9558 32.6703 97.1099 32.1193C97.2833 31.4992 97.1667 30.7472 97.1667 30.1094C97.1667 28.3457 98.6591 26.916 100.5 26.916" stroke="#009FE3" stroke-width="1.73077" stroke-linecap="round" stroke-linejoin="round"/>
<path d="M138 36.081C138 41.1423 133.522 45.246 128 45.246C127.351 45.2468 126.703 45.1893 126.065 45.0745C125.606 44.9919 125.377 44.9506 125.217 44.9741C125.056 44.9975 124.829 45.1132 124.375 45.3446C123.09 45.9992 121.592 46.2304 120.151 45.9736C120.699 45.3283 121.073 44.5541 121.238 43.724C121.338 43.2164 121.09 42.7231 120.719 42.3621C119.033 40.7224 118 38.5128 118 36.081C118 31.0197 122.478 26.916 128 26.916C133.522 26.916 138 31.0197 138 36.081Z" stroke="#009FE3" stroke-width="1.73077" stroke-linejoin="round"/>
<path d="M127.996 36.4961H128.004M131.991 36.4961H132M124 36.4961H124.009" stroke="#009FE3" stroke-width="1.92308" stroke-linecap="round" stroke-linejoin="round"/>
<g clip-path="url(#clip8_1385_9813)">
<path d="M160 26.9912C160.657 26.9912 161.238 27.3064 161.584 27.7861V27.7871L161.67 27.915L161.691 27.9492H163C163.487 27.9491 163.955 28.1252 164.311 28.4414C164.622 28.718 164.828 29.0837 164.898 29.4805L164.92 29.6523L164.925 29.793V41.2861L164.919 41.5127C164.862 42.6447 164.381 43.7229 163.559 44.5459C162.736 45.3689 161.631 45.8775 160.451 45.9814L160.214 45.9961L159.998 46.001H151L150.818 45.9932C150.398 45.9552 150.001 45.7854 149.689 45.5088C149.378 45.2321 149.172 44.8665 149.102 44.4697L149.08 44.2979L149.075 44.1572V29.79L149.083 29.6172C149.122 29.2166 149.298 28.8372 149.587 28.5391C149.917 28.1982 150.37 27.9891 150.855 27.9541L150.854 27.9531L151.002 27.9492H152.311L152.332 27.9131C152.487 27.6561 152.705 27.4378 152.967 27.2783C153.228 27.1196 153.525 27.0228 153.833 26.9971L153.834 26.998L154.003 26.9912H160ZM150.925 44.2354H160C160.815 44.2354 161.596 43.9247 162.173 43.3721C162.75 42.8193 163.075 42.0693 163.075 41.2861V29.7148H161.925V29.79C161.925 30.2772 161.723 30.7453 161.362 31.0908C161.002 31.4364 160.512 31.6309 160 31.6309H154C153.488 31.6309 152.998 31.4364 152.638 31.0908C152.277 30.7453 152.075 30.2772 152.075 29.79V29.7148H150.925V44.2354ZM157 38.4873C157.237 38.4876 157.464 38.5746 157.635 38.7295C157.806 38.8843 157.908 39.0948 157.922 39.3184C157.936 39.542 157.86 39.7629 157.709 39.9355C157.577 40.0868 157.396 40.1918 157.195 40.2334L157.112 40.2461L156.996 40.2529H154L153.912 40.249C153.708 40.2302 153.515 40.1463 153.365 40.0107C153.194 39.856 153.092 39.6455 153.078 39.4219C153.064 39.1982 153.14 38.9774 153.291 38.8047C153.441 38.6331 153.654 38.5209 153.887 38.4932L153.888 38.4941L154.004 38.4873H157ZM154 34.6553H160C160.246 34.6553 160.482 34.7491 160.655 34.915C160.828 35.0809 160.925 35.305 160.925 35.5381C160.925 35.7712 160.828 35.9953 160.655 36.1611C160.482 36.3271 160.246 36.4209 160 36.4209H154C153.754 36.4209 153.518 36.3271 153.345 36.1611C153.172 35.9953 153.075 35.7712 153.075 35.5381C153.075 35.305 153.172 35.0809 153.345 34.915C153.518 34.7491 153.754 34.6553 154 34.6553ZM153.925 29.8652H160.075V28.7568H153.925V29.8652Z" fill="#009FE3" stroke="#E5F5FC" stroke-width="0.15"/>
</g>
<g clip-path="url(#clip9_1385_9813)">
<path d="M186 26.916C191.523 26.916 196 31.205 196 36.4961C196 41.7872 191.523 46.0762 186 46.0762C180.477 46.0762 176 41.7872 176 36.4961C176 31.205 180.477 26.916 186 26.916ZM186 28.832C183.878 28.832 181.843 29.6395 180.343 31.0768C178.843 32.5141 178 34.4635 178 36.4961C178 38.5287 178.843 40.4781 180.343 41.9154C181.843 43.3527 183.878 44.1602 186 44.1602C188.122 44.1602 190.157 43.3527 191.657 41.9154C193.157 40.4781 194 38.5287 194 36.4961C194 34.4635 193.157 32.5141 191.657 31.0768C190.157 29.6395 188.122 28.832 186 28.832ZM186 30.748C186.245 30.7481 186.481 30.8342 186.664 30.9901C186.847 31.1461 186.964 31.3609 186.993 31.594L187 31.7061V36.0995L189.707 38.6928C189.886 38.8652 189.99 39.0965 189.998 39.3398C190.006 39.5831 189.917 39.8201 189.749 40.0027C189.581 40.1852 189.346 40.2997 189.094 40.3228C188.841 40.3458 188.588 40.2758 188.387 40.1269L188.293 40.0474L185.293 37.1734C185.138 37.0244 185.038 36.8304 185.009 36.6216L185 36.4961V31.7061C185 31.452 185.105 31.2083 185.293 31.0286C185.48 30.849 185.735 30.748 186 30.748Z" fill="#009FE3"/>
</g>
<defs>
<clipPath id="clip0_1385_9813">
<rect width="20.9922" height="20.9922" fill="white" transform="translate(1.50391 1)"/>
</clipPath>
<clipPath id="clip1_1385_9813">
<rect width="24" height="22.9922" fill="white" transform="translate(29)"/>
</clipPath>
<clipPath id="clip2_1385_9813">
<rect width="22.0016" height="16.7257" fill="white" transform="translate(59 3.13721)"/>
</clipPath>
<clipPath id="clip3_1385_9813">
<rect width="24" height="22.9922" fill="white" transform="translate(145)"/>
</clipPath>
<clipPath id="clip4_1385_9813">
<rect width="24" height="22.9922" fill="white" transform="translate(174)"/>
</clipPath>
<clipPath id="clip5_1385_9813">
<rect width="20.9922" height="20.9922" fill="white" transform="translate(1.50391 26)"/>
</clipPath>
<clipPath id="clip6_1385_9813">
<rect width="24" height="22.9922" fill="white" transform="translate(29 25)"/>
</clipPath>
<clipPath id="clip7_1385_9813">
<rect width="22.0016" height="16.7257" fill="white" transform="translate(59 28.1372)"/>
</clipPath>
<clipPath id="clip8_1385_9813">
<rect width="24" height="22.9922" fill="white" transform="translate(145 25)"/>
</clipPath>
<clipPath id="clip9_1385_9813">
<rect width="24" height="22.9922" fill="white" transform="translate(174 25)"/>
</clipPath>
</defs>
</svg>
